<svg xmlns="http://www.w3.org/2000/svg" width="544" height="327.9" viewBox="0 0 544 327.9"><g id="Hintergrund"><rect x="-4.67" y="-3" width="553.11" height="498.11" fill="#00265b"/></g><g id="Illu"><path d="M12.33,31.18a17.75,17.75,0,0,0,0,4.43c.33,2,1.52,2.77,3.42,2.16a8.1,8.1,0,0,0,5.49-4.63A9.94,9.94,0,0,1,22,31.75c.42-.72.89-1.48,1.86-1.35s1.43,1,1.66,1.88c.9,3.5,0,6-2.9,8.18-1.8,1.35-3.84,2.39-5.51,3.92-2.68,2.48-3.51,5.72-.49,8.69,1.65,1.62,3.59,2.85,5.35,4.32a8,8,0,0,1,1.72,1.87,2.85,2.85,0,0,1-1,4.2,20.25,20.25,0,0,1-2.09,1,4.44,4.44,0,0,0-2.86,5,24.91,24.91,0,0,0,2.13,7.33,71.9,71.9,0,0,0,4.86,9.59c2.21,3.56,5.48,6.11,8.72,8.62a18.22,18.22,0,0,1,6.87,10.06,6.68,6.68,0,0,1-.13,4.37,3.39,3.39,0,0,1-3.23,2.28,12.89,12.89,0,0,0-1.87.2c-2,.34-2.47,1.77-1.15,3.28a26.43,26.43,0,0,0,4.32,3.65c1.67,1.25,3.28,2.55,3.72,4.78a8.16,8.16,0,0,1-.34,3.84,17,17,0,0,0,0,9,12.81,12.81,0,0,1-1.24,10.19,12.31,12.31,0,0,0-1.48,3.33,2.71,2.71,0,0,0,.79,2.83A9.78,9.78,0,0,0,41,153.93c3.89,2.58,4.71,5.87,3.54,10.15a58.76,58.76,0,0,0-2,8.63c-.28,2.42-1.7,3.42-4.56,3.6a19.81,19.81,0,0,0-2.65.26A3.85,3.85,0,0,0,32,180.32a11.53,11.53,0,0,0,1.17,5.48c.53,1.33,1.12,2.65,1.54,4a6.91,6.91,0,0,1-1.56,7,30.61,30.61,0,0,1-3.5,3.24c-3.94,3.29-3.31,7.77-1.17,11.32a15.38,15.38,0,0,0,5.73,5.13c2.39,1.41,4.92,2.56,7.26,4.06A7.49,7.49,0,0,1,43,221.86a2.49,2.49,0,0,1-.48,4.14,17.36,17.36,0,0,1-5.06,1.93c-.83.22-1.66.39-2.49.6-3.45.86-4.44,2.1-4.18,6,.1,1.59.48,3.26-.14,4.74a22.71,22.71,0,0,0-1.51,9c0,3.64-2.46,4.85-5.84,4.32a21,21,0,0,0-4.4-.47,2.57,2.57,0,0,0-2.69,3,9.12,9.12,0,0,0,.68,2.67,20.66,20.66,0,0,1,1.2,4.84,13.52,13.52,0,0,1,.13,6c.09,3.13,1.64,5.73,3.13,8.32a25.51,25.51,0,0,1,3.05,6.75c1,4.11-.57,7.51-3.21,10.49-4,4.46-8.59,8.25-13,12.25A88.34,88.34,0,0,0,.07,314.1c-.28.33-.51.74-1,.9V292.11a3.33,3.33,0,0,1,1.56-.8c2-.77,2.46-2.35,1.22-4.05C1.32,286.49.65,285.79.11,285c-1.47-2.2-1.23-4,.76-5.77.39-.34.81-.65,1.17-1a3.6,3.6,0,0,0,1-3.26,5.19,5.19,0,0,0-.19-.87c-1.1-3.55,0-6.46,2.54-9a39.83,39.83,0,0,0,3.26-3.49c1.95-2.52,2.11-4.66.5-7.38a13.13,13.13,0,0,1-1.33-2.68,3.8,3.8,0,0,1,1-4.08A8.43,8.43,0,0,1,12,245.56c1.87-.7,3.78-1.3,5.68-1.91a16.91,16.91,0,0,0,4-1.91A7.67,7.67,0,0,0,23,230a28.31,28.31,0,0,0-3.3-2.79,5,5,0,0,1-2-5.2c.07-.44.13-.88.2-1.32.21-1.35-.11-1.92-1.39-2.37a13.52,13.52,0,0,0-3.28-.46,2.74,2.74,0,0,1-2.5-1.57,2.23,2.23,0,0,1,.67-2.64c1.8-1.61,2.13-3.7,2.2-5.92a12.91,12.91,0,0,1,.36-2.31,24.85,24.85,0,0,0,.73-6.6,5.49,5.49,0,0,1,2.28-4.8c1.1-.88,2.3-1.62,3.39-2.52a4.8,4.8,0,0,0,1.78-4.84,16.29,16.29,0,0,0-.58-2.26,7.36,7.36,0,0,1,1-7,18.42,18.42,0,0,0,1.1-1.8,4.07,4.07,0,0,0-.27-4.6c-.47-.71-1.06-1.33-1.49-2.07a3.15,3.15,0,0,1-.4-3.35,3,3,0,0,1,3-1.32,10.13,10.13,0,0,1,3,.6,14.91,14.91,0,0,0,7.43.74,5.3,5.3,0,0,0,3.89-2.46,2.84,2.84,0,0,0-.07-3.15,5.36,5.36,0,0,0-3.94-2.6,24.39,24.39,0,0,1-3.88-.94c-2.28-.73-3.12-2.18-2.7-4.5a32.6,32.6,0,0,1,1.53-4.63,32.13,32.13,0,0,0,1.61-8.58c.38-6.57-.95-12.86-2.74-19.11-.91-3.21-1.91-6.38-2.91-9.56a12,12,0,0,1-.6-3.71c0-1.3,0-2.6,0-3.89a8.31,8.31,0,0,0-2.58-6.28A52.13,52.13,0,0,1,17.4,90.9a27.5,27.5,0,0,1-5.62-15.07c-.26-4.25-1-8.37-3.23-12.1C5.91,59.32,5,54.36,4.07,49.4c-.34-1.89-.82-3.76-1.25-5.63a91.88,91.88,0,0,1-1.51-9.3,10.27,10.27,0,0,0-.87-3.21A30.74,30.74,0,0,1-.89,28.34V13a64.24,64.24,0,0,0,5.67,6.22,43.13,43.13,0,0,1,6.74,8.48A3.34,3.34,0,0,1,12.33,31.18Z" fill="#b32d07"/><path d="M-.89,28.34a9.87,9.87,0,0,1,2.63,6.08A96.72,96.72,0,0,0,3.93,46.73c.89,3.66,1.37,7.41,2.46,11a40.86,40.86,0,0,0,2.85,6.37,22.1,22.1,0,0,1,2.23,5.54,58.22,58.22,0,0,1,.73,6A26.63,26.63,0,0,0,20,93.13a42.37,42.37,0,0,1,4,4.16,8,8,0,0,1,1.58,4.64c.09,2.62-.32,5.26.48,7.83.56,1.8,1.14,3.6,1.7,5.4A111.79,111.79,0,0,1,30.66,126a50.22,50.22,0,0,1,1.15,8.66A38,38,0,0,1,30.92,145a43.73,43.73,0,0,1-1.7,5,12.27,12.27,0,0,0-.74,3,2.84,2.84,0,0,0,2,2.86A20.84,20.84,0,0,0,34.69,157a5.9,5.9,0,0,1,2.68,1c1.44,1,2.57,2.3,2.3,4.13A4.56,4.56,0,0,1,36,165.88a14,14,0,0,1-8.5-.49,9.86,9.86,0,0,0-3.8-.63,2.12,2.12,0,0,0-2.06,2.91A6.61,6.61,0,0,0,23,169.92c2.08,2.53,2.31,4.47.35,7a8,8,0,0,0-1.18,8.23,5.67,5.67,0,0,1-.63,5.79,9.42,9.42,0,0,1-1.91,1.66c-.83.62-1.7,1.19-2.52,1.82a4.62,4.62,0,0,0-2,4.09c.2,2.85-.48,5.58-1,8.35-.24,1.38-.21,2.78-.54,4.16a3.74,3.74,0,0,1-1,1.92,11,11,0,0,0-1.23,1.42,1.87,1.87,0,0,0,1.54,3.07,16.83,16.83,0,0,1,3.61.45c1.71.53,2.07,1.23,1.76,3a16.48,16.48,0,0,0-.28,2.41,4.07,4.07,0,0,0,1.7,3.45,34.8,34.8,0,0,1,3.58,3,8.19,8.19,0,0,1-2,12.74c-2.85,1.59-6,2.23-9,3.39a12.45,12.45,0,0,0-2.47,1.25c-2,1.33-2.38,3.29-1.12,5.54.29.51.61,1,.92,1.51a5.93,5.93,0,0,1-.18,7.06A22.32,22.32,0,0,1,7.11,264c-.84.83-1.66,1.68-2.43,2.59a7.11,7.11,0,0,0-1.45,7.06,4.76,4.76,0,0,1-1.93,5.8c-2.49,1.84-2.54,3.3-.55,5.76a14.58,14.58,0,0,1,1.91,2.44,2.69,2.69,0,0,1-1.31,3.87,5.29,5.29,0,0,1-2.24.59V263.89A3.22,3.22,0,0,1,.24,262.7c2.33-1.57,3-3.3,2.32-6-.32-1.25-.67-2.5-1-3.76a7,7,0,0,1,1.33-6.48,20.41,20.41,0,0,0,2.94-4.81,5.29,5.29,0,0,1,4.88-3.3,24.87,24.87,0,0,0,5.15-.72c1.42-.38,3-.79,3.28-2.43s-1.08-2.33-2.14-3.1a37.81,37.81,0,0,0-5.08-3c-2-1-4-2-6-3A6.42,6.42,0,0,1,2.31,219a13.88,13.88,0,0,1,1.55-4.72c.64-1.21,1.28-2.43,2-3.58A21.75,21.75,0,0,0,9.1,198.42a60.34,60.34,0,0,1,1.38-15c.87-3.53,2.11-6.94,3.18-10.41.73-2.37,1.27-4.79,1.94-7.18a74.15,74.15,0,0,1,5.25-12.47c2.17-4.43,4.23-8.9,5-13.83a20.78,20.78,0,0,0,0-6.2,79.39,79.39,0,0,0-3.71-13.69c-1.11-3.27-1.75-6.66-2.62-10A56.82,56.82,0,0,0,11,91.44,32.72,32.72,0,0,1,5.52,78.69a10.87,10.87,0,0,1-.07-3.32c.47-3.85,0-7.43-2.74-10.48a12.63,12.63,0,0,1-3-7.74c-.16-2-.33-4-.64-5.92Z" fill="#f36214"/><path d="M-.89,51.23a21,21,0,0,1,1,5.53A13,13,0,0,0,3.3,65c2.52,2.81,3.11,6.19,2.64,9.75-.44,3.35.45,6.38,1.62,9.4a34.34,34.34,0,0,0,4,7.39,57.49,57.49,0,0,1,9.31,21.9,105.73,105.73,0,0,0,3.17,10.74A57.07,57.07,0,0,1,26.22,133a24.3,24.3,0,0,1-1.08,11.37c-1.68,5.21-4.38,9.94-6.61,14.9a52,52,0,0,0-3.18,9.32c-1.06,4.55-2.73,8.91-4,13.39a48.07,48.07,0,0,0-1.61,9.38c-.3,3.58,0,7.18-.4,10.75a22.21,22.21,0,0,1-3.28,9.22,20.7,20.7,0,0,0-3.26,7.35c-.57,3.38.52,5.66,3.56,7.22,3.72,1.9,7.57,3.56,11,5.93A8.26,8.26,0,0,1,19,233.27a2.28,2.28,0,0,1-.44,3.64c-1.59,1.18-3.48,1.38-5.35,1.63-1.2.16-2.42.23-3.62.41a4.26,4.26,0,0,0-3.36,2.79,18.62,18.62,0,0,1-3,5A6.37,6.37,0,0,0,2,252.68c.37,1.58.77,3.16,1.13,4.74.63,2.77-.84,4.58-2.75,5.75-.41.26-.83.48-1.25.72V211.67c.62-3.19,1.89-6.21,2.42-9.43s1-6.44,1.31-9.67a68.65,68.65,0,0,1,2.69-13c1.53-4.94,3.36-9.8,4.34-14.9a32.37,32.37,0,0,0-.33-13.54,73.67,73.67,0,0,1-2.06-13.9c-.2-5.63-.07-11.25-.15-16.87a127.63,127.63,0,0,0-1.54-20.1,77.35,77.35,0,0,0-4.2-14.58,27.19,27.19,0,0,1-2-8.94A10.66,10.66,0,0,1-.18,74.2a10.4,10.4,0,0,0-.71-5.41Z" fill="#f9ac5b"/><path d="M-.89,68.79A5.14,5.14,0,0,1,.36,73.33C-.53,77.6.5,81.56,2,85.46a79,79,0,0,1,5.11,21.26,233.43,233.43,0,0,1,.65,23.95,83.24,83.24,0,0,0,2.34,21c1.56,6.23.73,12.39-1.1,18.47-1.37,4.57-3,9-4.21,13.68a97.48,97.48,0,0,0-1.92,12.13c-.62,5.22-1.35,10.41-3.51,15.27-.08.17-.18.32-.27.48Z" fill="#fcef9d"/><path d="M227.51,136.74a36.59,36.59,0,0,1,5.66-7.21,50.12,50.12,0,0,1,18.71-12.39,51.8,51.8,0,0,1,12.56-3,48,48,0,0,1,9.2-.16,50.44,50.44,0,0,1,19,5.27,51.91,51.91,0,0,1,17.7,14.67,8,8,0,0,1,.51.85,1,1,0,0,1-.62.44c-3.46,1.05-6.79,2.54-10.39,3.13-2.23.36-4.46.63-6.7.83-3,.29-6,.86-9,1.24a52.72,52.72,0,0,1-9.73.07c-2.24-.13-4.49-.27-6.74-.36-1.93-.07-3.85,0-5.78,0a97.86,97.86,0,0,1-13.78-1.23c-3.56-.44-7.11-.86-10.7-1-3-.15-5.9-.27-8.84-.66A1.49,1.49,0,0,1,227.51,136.74Z" fill="#bf8f5e"/><path d="M344.65,138.75a63.11,63.11,0,0,0-3.51-6.27c-6-10.65-11.71-21.42-16-32.87a48.64,48.64,0,0,1-3.18-11.85,10.86,10.86,0,0,1,.14-3.85A3.44,3.44,0,0,1,325.55,81a.27.27,0,0,1,.4.06c4.63,1,8.17,3.85,11.71,6.68a122.86,122.86,0,0,1,11.8,10.9c5.08,5.27,10,10.67,14.67,16.32,1.58,1.91,3.19,3.79,4.75,5.71a1.55,1.55,0,0,0,1.56.57.29.29,0,0,1,0,.33,6.55,6.55,0,0,1-2.83.87,1.31,1.31,0,0,1-.51-.09,9.4,9.4,0,0,1-2.38-2.45,215.63,215.63,0,0,0-17.29-18.47,55.16,55.16,0,0,0-10.27-8.11,11.27,11.27,0,0,0-3.66-1.54q-3.33-.59-3.53,2.8a16.81,16.81,0,0,0,.48,4.63,75,75,0,0,0,4.94,13.89,249.14,249.14,0,0,0,12.3,23.74q6.68,11.55,14,22.66,10.53,16,22.16,31.24c5.42,7.09,11,14,16.9,20.75,4.2,4.79,8.51,9.48,13.14,13.85a64.8,64.8,0,0,0,10.73,8.59,12.69,12.69,0,0,0,3.74,1.66c2.33.51,3.53-.46,3.67-2.83a22.91,22.91,0,0,0-1.48-8.49,147.42,147.42,0,0,0-10.12-22.68c-1.69-3.17-3.34-6.35-5.18-9.44a2.57,2.57,0,0,1-.33-.82,1.31,1.31,0,0,1,.1-.65c.55-.69.74-1.72,1.82-1.88a1.58,1.58,0,0,0,.36,1.32c4.55,7.75,8.9,15.62,12.82,23.71A125.34,125.34,0,0,1,438.53,235a22.23,22.23,0,0,1,1.07,6.88,8.73,8.73,0,0,1-.09,1.54c-.65,3-1.75,4.22-5.62,3-3.55-1.09-6.47-3.38-9.33-5.67a170.65,170.65,0,0,1-19.47-18.93c-4.27-4.72-8.39-9.56-12.42-14.48-.3-.36-.54-.82-1.11-.81-2.44-2.74-4.61-5.69-6.86-8.58q-12.93-16.67-24.63-34.23Q352.24,152,345,139.9A2.15,2.15,0,0,1,344.65,138.75Z" fill="#957154"/><path d="M374.16,120.52a18.07,18.07,0,0,1,5.71-.55,43.42,43.42,0,0,1,31.2,12.15A42.9,42.9,0,0,1,423.79,155a27.76,27.76,0,0,1,.73,5.37c.63,1.87.17,3.79.19,5.68a47.9,47.9,0,0,1-2.25,11.68,5,5,0,0,1-.64,1.52c-4.25-4.25-8.62-8.41-12.53-13a199,199,0,0,1-12.32-16,162.34,162.34,0,0,1-12.69-22.13c-1-2-1.87-4.11-2.74-6.19-.56-1.33-.76-1.44-2.19-1.26-1,.14-2.06,0-3.09.11C375.55,120.77,374.78,121.24,374.16,120.52Z" fill="#c89570"/><path d="M220.2,153.87a49.49,49.49,0,0,1,2.28-7.53,2.16,2.16,0,0,1,2-.42c5.59.51,11.15,1.23,16.76,1.57,3.3.2,6.58.16,9.87.13,3.59,0,7.18.14,10.75.32a69.81,69.81,0,0,0,7.65.11c4-.22,7.92,0,11.87-.22,4.14-.26,8.28,0,12.42-.19,4.32-.15,8.65-.17,13-.48,3.05-.22,6.12-.41,9.16-.78a1.61,1.61,0,0,1,1.44.39,34.93,34.93,0,0,1,2.43,8.49c.27,1.4.11,1.51-1.18,1.94-4.16,1.38-8.51,1.4-12.78,2-3.18.48-6.39.66-9.58,1a30.36,30.36,0,0,1-6.32,0,21.55,21.55,0,0,0-7.59.5,9,9,0,0,1-2.3.3c-2.71,0-5.41,0-8.11,0s-5.15.45-7.73.59a26.71,26.71,0,0,1-8.59-.62,17.17,17.17,0,0,0-7.44-.7c-1.67.28-3.31-.25-4.94-.52-4.3-.7-8.54-1.76-12.86-2.4a33.06,33.06,0,0,0-6.28-.58c-1,0-2,0-3,0s-1.3-.37-1.16-1.41C220,154.87,220.12,154.37,220.2,153.87Z" fill="#f4c77e"/><path d="M389.34,207a40.82,40.82,0,0,1-12.33.74,44,44,0,0,1-31.22-17.11,42.92,42.92,0,0,1-8.14-17.76,42.19,42.19,0,0,1-.46-15.2,45.7,45.7,0,0,1,4.61-14.25c.12-.22.28-.43.42-.64a25.09,25.09,0,0,1,1.52,3.67A154.59,154.59,0,0,0,354,167.22a175.83,175.83,0,0,0,13.62,19.68,187.08,187.08,0,0,0,15,16.31c.82.81,1.75,1.48,2.55,2.31s1.71,1.54,3,1.15A1,1,0,0,1,389.34,207Z" fill="#d5a47a"/><path d="M219.59,171.9a7.73,7.73,0,0,1-.27-2.62c-.21-2.4,0-4.81-.09-7.21,0-.71.54-.7,1-.67,1.48.09,2.93.41,4.39.63,1.06.16,2.1.42,3.17.52a11.2,11.2,0,0,1,2.87,1.15,24.47,24.47,0,0,0,8.07,1.24c3.16.13,6.24.75,9.36,1.06a5.37,5.37,0,0,0,.89.09c3-.13,6.05.3,9.09.25a34.43,34.43,0,0,1,5,.49,22.09,22.09,0,0,0,6.08-.11,35.83,35.83,0,0,1,11.69.26,11.81,11.81,0,0,0,6.24-.36,12.64,12.64,0,0,1,6.56-.46,17.63,17.63,0,0,0,7.88-.58c3.37-.91,6.83-1.29,10.25-1.89a37.8,37.8,0,0,0,6.21-1.62l.73-.26c1.56-.55,1.8-.39,1.86,1.22a.78.78,0,0,0,.11.42,30.21,30.21,0,0,1-.24,6.23,3,3,0,0,1-1,1.16,23.1,23.1,0,0,0-2.66,2.17,2.11,2.11,0,0,1-2.49.33,5.69,5.69,0,0,0-4.7.46,4.66,4.66,0,0,0-1.16.84,2.07,2.07,0,0,1-2.34.47,5.71,5.71,0,0,0-4.63.23,6.35,6.35,0,0,1-3.29.84,5.52,5.52,0,0,0-2.35.59,35,35,0,0,1-7.4,1.91c-1.76.28-3.28.12-4.57-1.45s-1.95-1.67-3.86-.72c-2.95,1.46-6.14,1.87-9.33,2.26-5.42.65-10.51-.86-15.49-2.65a15.46,15.46,0,0,0-8.81-.75,9.91,9.91,0,0,1-6.09-.22,11.15,11.15,0,0,0-3.82-.59,3.19,3.19,0,0,1-2.2-.62c-2.61-2.31-5.53-2.37-8.62-1.26a7.83,7.83,0,0,1-4.69.22A1.65,1.65,0,0,1,219.59,171.9Z" fill="#cfa25e"/><path d="M310.44,195.44a40.2,40.2,0,0,1-7.28,7.85,50.19,50.19,0,0,1-18.39,10.18,49.63,49.63,0,0,1-18.39,2.13,50.78,50.78,0,0,1-30.71-13.11,36.17,36.17,0,0,1-6.17-6.78c.42-.34.84-.12,1.25,0a37.73,37.73,0,0,0,11.59,2.2c4.95.18,9.88.63,14.84.65A60,60,0,0,1,268.49,200a28.38,28.38,0,0,0,11.13-.24c2.39-.49,4.77-1.05,7.14-1.61a7.67,7.67,0,0,1,4.78.41,5.88,5.88,0,0,0,4.94-.15c.4-.19.83-.31,1.23-.52a11.08,11.08,0,0,1,6.43-1.27,3.76,3.76,0,0,0,2-.37,16.55,16.55,0,0,1,2.82-1C309.51,195.08,310,195,310.44,195.44Z" fill="#bf8f5e"/><path d="M317.8,181.68a32,32,0,0,1-2.21,5.34c-6.36,1.17-12.46,3.44-18.88,4.35a45,45,0,0,1-9.28.17,56.07,56.07,0,0,0-7.1,0c-4,.24-7.93,1.36-12,1.26-3.11-.07-6.18-.46-9.27-.78a56.09,56.09,0,0,0-12.15-.4,40.9,40.9,0,0,1-10.36-.47,15.69,15.69,0,0,0-5.51-.2,1.83,1.83,0,0,1-.66,0,13.62,13.62,0,0,1-5.07-1.76,24.38,24.38,0,0,1-2-4.18c-.31-.49-.32-1.11-.67-1.58-.19-.1-.19-.28-.19-.46.08-.68.65-.64,1.09-.66a59.81,59.81,0,0,0,6.92-.9,35.08,35.08,0,0,1,9.38-.11c3.67.4,7.3.55,10.88-.56a9.18,9.18,0,0,1,5.14.38,49.63,49.63,0,0,0,9.78,1.13,9.76,9.76,0,0,0,4.53-.91,4,4,0,0,1,3.11-.19,6.71,6.71,0,0,0,4.87.08,3,3,0,0,1,1.75,0c2.58.5,5.1,1.25,7.61,2,3.76,1.11,7.23.79,10.32-1.8.31-.26.68-.45,1-.68a1.63,1.63,0,0,1,2.21.06c1.22.93,2.66.7,4.06.45a9.6,9.6,0,0,0,2.93-1,3.87,3.87,0,0,1,3-.39,11.58,11.58,0,0,0,5.7-.1c1.59-.35,1.73-.21,1.26,1.3A2.28,2.28,0,0,1,317.8,181.68Z" fill="#cfa25e"/><path d="M317.8,181.68l.27-1.69c-1,.15-2,.45-2.94.62a11.82,11.82,0,0,1-4.71-.31,2.21,2.21,0,0,0-1.69.23,11.31,11.31,0,0,1-5.17,1.49,3.35,3.35,0,0,1-3.12-1.05c-.31-.41-.54-.33-.91-.07-1,.72-2,1.37-3,2.07-2.6,1.8-5.45,1.67-8.32,1s-6-1.58-9-2.38a1,1,0,0,0-.75,0c-1.95,1-3.88.57-5.8-.1a2.22,2.22,0,0,0-1.8.08,12.25,12.25,0,0,1-6.56,1.09c-2-.23-4.06-.09-6.06-.52-1.15-.25-2.32-.42-3.46-.71a9.19,9.19,0,0,0-5.22.12c-3.11.95-6.31.62-9.46.3a39.11,39.11,0,0,0-11.33.35,28.29,28.29,0,0,1-5.27.61c-.37,0-.75-.07-1.06.22a34.28,34.28,0,0,1-1.63-4.44,2.46,2.46,0,0,1-.78-2.21,2.85,2.85,0,0,0,0-1.09,13.23,13.23,0,0,1-.46-3.37,7,7,0,0,0,5.24.58c1.24-.35,2.5-.66,3.76-.95a5.12,5.12,0,0,1,4.49,1.11c1.62,1.41,3.45,1.47,5.33,1.68a8.41,8.41,0,0,1,2.69.59,6.26,6.26,0,0,0,4.22.2,16.56,16.56,0,0,1,10.3.71,39.2,39.2,0,0,0,12.06,2.7,29.68,29.68,0,0,0,6.69-.73,18.77,18.77,0,0,0,6.17-2,2.33,2.33,0,0,1,2.79.28,1.31,1.31,0,0,1,.32.3c1.52,2.46,3.77,2.22,6.12,1.68a39.82,39.82,0,0,0,5.86-1.64,6.14,6.14,0,0,1,3.45-.6c.64.12,1.26-.36,1.84-.67a6.06,6.06,0,0,1,5.64-.26,1.11,1.11,0,0,0,1.38-.31,5.91,5.91,0,0,1,6.48-1.58,2,2,0,0,0,2.49-.63,13.21,13.21,0,0,1,3.52-2.64A37.21,37.21,0,0,1,317.8,181.68Z" fill="#b97d49"/><path d="M320.67,163.45s-.06-.06-.07-.09c-.47-1.61-.49-1.67-2.13-1-3.73,1.55-7.72,1.9-11.63,2.6a47.81,47.81,0,0,0-6.27,1.31c-2.92.92-5.84.52-8.75.14a7.78,7.78,0,0,0-3.48.34,15.4,15.4,0,0,1-8,.62,31.36,31.36,0,0,0-10.89-.22,26.71,26.71,0,0,1-8.37-.08,24.65,24.65,0,0,0-3.75-.33,100,100,0,0,1-16.3-1.24,34.23,34.23,0,0,0-4.53-.29,18,18,0,0,1-7.66-1.86c-1.48-.75-3.24-.63-4.85-1-1.22-.28-2.5-.27-3.72-.55-.93-.21-1,.19-1,.89,0,2.19,0,4.37,0,6.56a4.85,4.85,0,0,1-.23-2,54.1,54.1,0,0,1,.74-12.19,12.16,12.16,0,0,1,.37-1.27,3.29,3.29,0,0,1-.16,1.53c-.12.63.05,1,.79,1,7.67-.47,15,1.7,22.45,3a16.57,16.57,0,0,0,5.8.42,13.07,13.07,0,0,1,6.13.67c4,1.23,8,.86,12.07.45a59,59,0,0,1,7.75-.28,37.9,37.9,0,0,0,9.68-.72,15.14,15.14,0,0,1,5-.11,53.91,53.91,0,0,0,10.7-.39c3-.29,6-.76,9-1a51,51,0,0,0,9.88-1.8c.8-.22.33-.86.48-1.29a6,6,0,0,1,.51,2.57A34.11,34.11,0,0,1,320.67,163.45Z" fill="#bf8f5e"/><path d="M225.32,189.23a13.37,13.37,0,0,1,3.61,1,3.25,3.25,0,0,0,1.62.32c3.12-.46,6.16.26,9.23.59a35.59,35.59,0,0,0,7.72,0,32.5,32.5,0,0,1,6.76,0c3.27.33,6.53.63,9.79,1,1.77.2,3.54.18,5.32.21,2.83,0,5.56-.65,8.34-1a56.12,56.12,0,0,1,10.29-.22,40.88,40.88,0,0,0,9.94-.43c4-.72,7.91-1.85,11.83-2.9,1.64-.44,3.33-.67,5-1a.82.82,0,0,1,.83.2,41.94,41.94,0,0,1-5.15,8.42,12.48,12.48,0,0,0-4.42,1.35,2.78,2.78,0,0,1-1.69.26,10,10,0,0,0-5.92,1,13.92,13.92,0,0,1-3.29,1.3,5.51,5.51,0,0,1-3.38-.24,8.06,8.06,0,0,0-5.41-.45A65.7,65.7,0,0,1,276,200.7a27,27,0,0,1-8.92-.51,44.94,44.94,0,0,0-10.76-1.14c-5.59,0-11.14-.55-16.71-.78a29.2,29.2,0,0,1-10.14-2.56A34.8,34.8,0,0,1,225.32,189.23Z" fill="#f4c77e"/><path d="M524.7,156.56l.2.47c.21.33.23.75.46,1.08a18.64,18.64,0,0,1,0,14.24c-2,2.12-4.14,3.58-7.22,2.49a3.35,3.35,0,0,0-3.36.45,1.41,1.41,0,0,1-.95.27c-2.74-.22-5.53.42-8.24-.37a5.18,5.18,0,0,0-3.16.2,8.11,8.11,0,0,1-4.26.34,7.23,7.23,0,0,0-2.32,0c-1.87.21-3.65-.6-5.5-.4a.83.83,0,0,1-.59-.28c-3-5.54-3.6-11.23-1.12-17.12a1.1,1.1,0,0,1,1.15-.47,25,25,0,0,0,5.53-.36c1.52-.26,3,.3,4.5.47a16.77,16.77,0,0,0,4.64,0,47.46,47.46,0,0,1,5.15-.68c2.84-.13,5.66.43,8.51.54,1.72.06,3.38.26,4.83-1A1.07,1.07,0,0,1,524.7,156.56Z" fill="#4b7fe2"/><path d="M389.34,207a3,3,0,0,0-1,0c-1.49.58-2.41-.29-3.4-1.18-2.81-2.52-5.45-5.22-8.1-7.9a150.17,150.17,0,0,1-11.78-13.67c-2.8-3.62-5.41-7.37-7.91-11.19a143.9,143.9,0,0,1-7.54-13q-2.48-4.81-4.7-9.76c-1-2.14-1.78-4.36-2.68-6.53-.15-.34.06-.66,0-1a25.47,25.47,0,0,1,2.43-4c1.81,2.45,3.22,5.14,4.81,7.72q4.62,7.44,9.44,14.77c4.26,6.49,8.68,12.88,13.2,19.19q9.21,12.84,19.1,25.18c.22.27.63.47.36.93Z" fill="#efaf62"/><path d="M374.16,120.52c.79.19,1.54-.31,2.33-.14.51.21.63.69.81,1.14a163.11,163.11,0,0,0,19.17,34.82,150.1,150.1,0,0,0,11.6,14.31c2.61,2.83,5.34,5.55,8.09,8.24a23.44,23.44,0,0,0,4.26,3.69,26.16,26.16,0,0,1-2.76,5.2.66.66,0,0,1-.52.36,1.38,1.38,0,0,1-.95-.5,150.13,150.13,0,0,1-15.5-15.39,176.58,176.58,0,0,1-13.25-17.37A151.69,151.69,0,0,1,377.61,138a166.39,166.39,0,0,1-7-15.84,2.2,2.2,0,0,1-.2-.75.74.74,0,0,0,0-.21h0a8.75,8.75,0,0,0,1.35-.4C372.59,120.81,373.34,120.38,374.16,120.52Z" fill="#d5a47a"/><path d="M317.34,146.77l-9.71.77c-1.66.12-3.32.28-5,.31-5.54.08-11.08.33-16.63.31-4.62,0-9.25,0-13.87.25a127.46,127.46,0,0,1-14-.13c-4.29-.21-8.58-.14-12.87-.16-4.7,0-9.35-.55-14-1-2.93-.32-5.88-.5-8.82-.74a26.52,26.52,0,0,1,2.82-6c1.27,1,2.87.82,4.33,1a71.92,71.92,0,0,0,8.12,1.08c1.81.07,3.61.31,5.43.29a126.84,126.84,0,0,1,13.5.65H257c4.73,0,9.47.49,14.2.2s9.4,0,14.09-.22q6.63-.33,13.27-.8c3.28-.24,6.56-.37,9.83-.74a64.14,64.14,0,0,0,6.49-.6A19,19,0,0,1,317.34,146.77Z" fill="#b97d49"/><path d="M314.9,141.26c0,.49-.27.6-.7.63-2.72.21-5.44.47-8.17.66q-10,.67-20,1.29c-.48,0-1,0-1.44,0-6.74.07-13.47.22-20.2.2-5.36,0-10.7-.44-16-.78-1.18-.07-2.37,0-3.55,0a110.49,110.49,0,0,1-17.41-1.68,7.09,7.09,0,0,0-1.21-.12c-.83,0-1.17-.28-.86-1.11a32.46,32.46,0,0,1,2.21-3.6c1.63-.12,3.21.33,4.84.34s3.38.3,5.07.35c4.67.13,9.26.86,13.87,1.44,2.6.32,5.21.67,7.82.76,4.69.17,9.39-.08,14.09.27,1.91.14,3.82.36,5.74.39a37.23,37.23,0,0,0,6.5-.49c4.38-.71,8.78-1.15,13.18-1.71a40.46,40.46,0,0,0,9.37-2.63,7,7,0,0,1,2.89-.67A38.59,38.59,0,0,1,314.9,141.26Z" fill="#f4c77e"/><path d="M433.34,161.23a17.93,17.93,0,0,1,1.11-3.34,1.8,1.8,0,0,1,1.93-1.14c2.85,0,5.71-.15,8.54.07A70.5,70.5,0,0,0,453,157c3.9-.17,7.81-.31,11.71-.56,1.84-.12,3.68-.3,5.53-.3A1.78,1.78,0,0,1,472,157l.24.62a3.58,3.58,0,0,1,.21.63c.29.95.07,1.34-.92,1.4-2.87.19-5.73.46-8.61.56-.81,0-1.61.17-2.42.24a69.37,69.37,0,0,1,8.53-.35,13.09,13.09,0,0,0,2.65-.14,1.49,1.49,0,0,1,1.44.38.14.14,0,0,1,0,.16,21.1,21.1,0,0,1,.45,6.14c-.09.93-.51,1.24-1.33,1.25a48.58,48.58,0,0,1-5.66,0,64.14,64.14,0,0,0-17.87.83,35.62,35.62,0,0,1-6.25.87,27.55,27.55,0,0,1-4.53-.33,36,36,0,0,0-3.74-.44,1.21,1.21,0,0,1-.89-.38,14.76,14.76,0,0,1-.15-5.81C433.25,162.14,432.88,161.63,433.34,161.23Z" fill="#80d7e2"/><path d="M420.42,182.58c-.36.3-.64.3-1-.06-3.51-3.29-7-6.63-10.28-10.12A146.79,146.79,0,0,1,396.44,157c-2.33-3.22-4.53-6.55-6.65-9.93q-3.41-5.44-6.36-11.13a122.58,122.58,0,0,1-6.94-15.58,26.29,26.29,0,0,0,3.54-.22c.8-.17,1.3.26,1.63,1,1,2.4,2.12,4.79,3.2,7.18a136.3,136.3,0,0,0,6.44,12.27c2.34,4,4.95,7.87,7.61,11.69a166,166,0,0,0,10.41,13.36,117.93,117.93,0,0,0,11.66,12,1.87,1.87,0,0,1,.84,1.59A16.69,16.69,0,0,1,420.42,182.58Z" fill="#efb559"/><path d="M370.45,121.42c.83.33.82,1.19,1.06,1.84a157.88,157.88,0,0,0,9.15,19.65,160.42,160.42,0,0,0,10.92,17.15,167.87,167.87,0,0,0,10.78,13.45A142.26,142.26,0,0,0,416.09,187a12.53,12.53,0,0,1,1.05,1.13c0,.26-.13.44-.27.63l-1.55,2c-.62.35-1-.14-1.33-.48-2.87-2.88-5.8-5.7-8.52-8.74-3.66-4.08-7.29-8.18-10.63-12.52a224.87,224.87,0,0,1-19.17-28.94q-4.25-7.68-7.8-15.7c-.31-.69-.94-1.41-.31-2.26A12,12,0,0,1,370.45,121.42Z" fill="#efb559"/><path d="M524.7,156.56a1.19,1.19,0,0,0-1.58.25c-1.27,1.33-3,1.27-4.58,1-1.91-.29-3.84,0-5.73-.39-2.86-.65-5.63.24-8.43.57a20,20,0,0,1-6.72-.37,7.92,7.92,0,0,0-3.18,0,18.1,18.1,0,0,1-5.4.11,1,1,0,0,0-.42.12,16.94,16.94,0,0,1,5.13-7.54,6.77,6.77,0,0,1,2.21-1.61c.21.51-.14.73-.45.92a13.18,13.18,0,0,1,3.61,1.4,4.68,4.68,0,0,0,2.75.69,1.84,1.84,0,0,1,1.08.18,4.26,4.26,0,0,0,3.84-.11,12,12,0,0,1,8.1-.93c.26.06.59.14.75,0,.72-.83,1.85-1.07,2.57-1.87A16.52,16.52,0,0,1,524.7,156.56Z" fill="#4474ce"/><path d="M436.48,153.9a18,18,0,0,1,10.64-8.18c8-2.42,15-.6,21,5.21a3.66,3.66,0,0,1,1.07,1.39c-.29.43-.74.42-1.19.47a54.17,54.17,0,0,1-6.86.23,8.61,8.61,0,0,0-2.2.27,15.06,15.06,0,0,1-5.83.26,9.5,9.5,0,0,0-2.66-.05,56.47,56.47,0,0,1-6.76.18,10.93,10.93,0,0,1-2.42-.19c-1.42-.28-2.85-.58-4.15.44A.5.5,0,0,1,436.48,153.9Z" fill="#79cad5"/><path d="M470.27,176.35a5.62,5.62,0,0,1-1.62,2.33,19.88,19.88,0,0,1-17.21,6.71,19.22,19.22,0,0,1-14.16-7.93c.33-.33.76-.24,1.16-.25,1.07,0,2.15,0,3.22,0,5.3.15,10.58-.2,15.87-.28a50.41,50.41,0,0,0,7.83-.7A8.92,8.92,0,0,1,470.27,176.35Z" fill="#79cad5"/><path d="M402.19,71.07c0,1.22,0,2.44,0,3.66,0,.46,0,.79-.64.78s-.58-.33-.57-.73v-.22c-.05-2.48-.05-2.48-2.49-2.48H251.18c-2.39,0-2.39,0-2.39,2.33,0,.23,0,.45,0,.67,0,.45-.12.68-.62.68s-.59-.3-.58-.72c0-1.33,0-2.66,0-4,.4-.28.86-.14,1.29-.14H400.8C401.26,70.91,401.76,70.73,402.19,71.07Z" fill="#fafafb"/><path d="M489.78,175c3.09-.23,6.14.33,9.22.41a4.67,4.67,0,0,0,2-.12,11.22,11.22,0,0,1,6.85-.27,6.46,6.46,0,0,0,3,0,5.46,5.46,0,0,1,2.75.06,1,1,0,0,0,1.11-.27,2.87,2.87,0,0,1,2.89-.62c.61.14,1.21.32,1.83.45a4.14,4.14,0,0,0,3.8-1,5.5,5.5,0,0,1,2.15-1.31,14.72,14.72,0,0,1-3.4,5.94,4.8,4.8,0,0,1-1.73,1.65.66.66,0,0,0-.44,0c-2.32,1.49-4.76,1.28-7.24.51a7.65,7.65,0,0,0-2.18-.36,41.22,41.22,0,0,1-6-.19,4.31,4.31,0,0,0-2.17.37c-1.29.46-2.65.63-4,1a2.37,2.37,0,0,1-1.53-.12.94.94,0,0,0-1.18.28A15.69,15.69,0,0,1,489.78,175Z" fill="#4474ce"/><path d="M470.27,176.35c-1,.46-2.1.06-3.16.18-2.89.35-5.78.59-8.68.87a4.91,4.91,0,0,1-.55,0c-6.47,0-12.93.38-19.4.24a3.49,3.49,0,0,1-1.2-.22,11.35,11.35,0,0,1-1.95-3.1c.09-.74.69-.66,1.18-.69,1.11-.07,2.21.13,3.31.17a52.43,52.43,0,0,0,11.8-.73,24.42,24.42,0,0,1,4.72-.5c4.81.07,9.59-.45,14.39-.49.61,0,1.44-.11,1.32,1A10.27,10.27,0,0,1,470.27,176.35Z" fill="#80d7e2"/><path d="M436.48,153.9c1.57-1.65,3.44-1.05,5.33-.81a38.24,38.24,0,0,0,7.64,0,19.78,19.78,0,0,1,4.07,0,13.07,13.07,0,0,0,5.06-.26,9.16,9.16,0,0,1,2.84-.33c2.59.13,5.16-.23,7.75-.24a8.83,8.83,0,0,1,1.77,2.59c.19.94-.52.87-1.08,1a34.2,34.2,0,0,1-5.53.38c-2.47.12-4.94.35-7.42.32-1.47,0-2.94.34-4.42.19-3.95-.39-7.91-.11-11.86-.29-1.36-.05-2.73.11-4.1.06-.49,0-1.09.05-1.2-.68A4.09,4.09,0,0,1,436.48,153.9Z" fill="#80d7e2"/><path d="M473.15,169.74a.11.11,0,0,1,0,.15,1.31,1.31,0,0,1-1.44.78,40.66,40.66,0,0,0-9.15.63c-3.58.51-7.18.88-10.79,1.07-3.06.16-6.11.45-9.18.44-2.52,0-5-.53-7.52-.43a.91.91,0,0,1-.82-.49.13.13,0,0,1,0-.17,1.51,1.51,0,0,1-.1-.42c-.36-1.67-.22-1.84,1.47-1.86s3.45.33,5.18.43a27.4,27.4,0,0,0,8.55-1,41.07,41.07,0,0,1,13.05-1.3c3.27.23,6.56.19,9.81.73C473.06,168.47,473.43,168.86,473.15,169.74Z" fill="#80d7e2"/><path d="M495.56,181.47l-.47-.75a1,1,0,0,1,1.05-.13c2.17.85,4.07-.31,6.05-.79a8.85,8.85,0,0,1,3-.25c1.72.17,3.47.11,5.2.11a9.2,9.2,0,0,1,2.59.49c2.2.64,4.4.85,6.48-.49.28-.17.81-.62.75.28a17.65,17.65,0,0,1-7.82,4.45,19.22,19.22,0,0,1-16.53-2.63C495.78,181.67,495.67,181.57,495.56,181.47Z" fill="#4b7fe2"/><path d="M480.23,70.92q15.82,0,31.66,0c.94,0,1.37.16,1.24,1.2a18,18,0,0,0,0,2.44c0,.42,0,.72-.59.7s-.53-.3-.52-.67c0-.59,0-1.18,0-1.77s-.2-.82-.77-.76a5,5,0,0,1-.55,0q-30.49,0-61,0c-1.05,0-1.49.22-1.32,1.31.08.51,0,1,0,1.56s-.17.58-.59.6-.55-.22-.55-.62c0-1.11,0-2.22,0-3.33,0-.49.19-.66.66-.63s.66,0,1,0Z" fill="#f8f8f9"/><path d="M434.23,171.89c1.35.1,2.69,0,4,.18a35.88,35.88,0,0,0,7,.25c3.7-.32,7.41-.47,11.11-.77s7.27-1.13,11-1.25a19,19,0,0,1,4.83,0c.42.08.67-.26,1-.42a6.68,6.68,0,0,1-1.08,3.2c-.12-.54-.54-.52-1-.53a50.37,50.37,0,0,0-6.72.37,43.34,43.34,0,0,1-5.1.07,74.45,74.45,0,0,0-10.21,1,46.08,46.08,0,0,1-10.37.2,6.51,6.51,0,0,0-3.36.17A5.64,5.64,0,0,1,434.23,171.89Z" fill="#79cad5"/><path d="M428.56,54.17c-1.39-6.41-.94-8.34-9.5-9.69.54-.11,1.08-.26,1.63-.34,5.21-.77,6.8-2.39,7.53-7.67.07-.47.17-.93.32-1.72.31,1.49.58,2.65.79,3.82.57,3.16,2.62,4.72,5.61,5.33a16.61,16.61,0,0,1,3.4.7c-1.27.23-2.25.43-3.24.58-3.28.49-5.28,2.28-5.82,5.61C429.1,51.88,428.82,53,428.56,54.17Z" fill="#484881"/><path d="M497.07,148.09a13.91,13.91,0,0,1,5.68-2.34,19,19,0,0,1,14.94,2.73,3,3,0,0,1,.32.3,4.47,4.47,0,0,1-3.9,1,15.91,15.91,0,0,0-5.8.42c-3.22.88-6.28.27-9.32-.74A3.31,3.31,0,0,1,497.07,148.09Z" fill="#4473ce"/><path d="M456.91,116.91c2.43-.55,4.73-.52,6.42-2.14s1.58-3.94,2.26-6c.31,1.33.55,2.65.94,3.93a4.8,4.8,0,0,0,3.13,3.19c1.32.5,2.73.58,4.2,1.07-5.18.23-8.14,2.64-8,8.26a3.42,3.42,0,0,1-.7-2c-.42-2.07-1-4-3.1-5.08a14.76,14.76,0,0,0-3.53-.9Z" fill="#484881"/><path d="M497.07,148.09c.22,0,.48,0,.64.15,2.08,1.57,4.61,1.64,7,2a5.1,5.1,0,0,0,2.18-.24,34.15,34.15,0,0,1,5.11-.8,1.76,1.76,0,0,1,.56,0,10.57,10.57,0,0,0,5.43-.45l.24.19c.33.46.31.78-.32.92a2.34,2.34,0,0,0-1.67,1.15,1,1,0,0,1-1.19.35c-3.13-1-6-.16-8.87,1.12a3.23,3.23,0,0,1-2.86,0,2.45,2.45,0,0,0-1.92-.27,2.08,2.08,0,0,1-1.77-.44,39.67,39.67,0,0,0-4.58-2c.2-.49.83-.55.93-1.07A1.88,1.88,0,0,1,497.07,148.09Z" fill="#4b7fe2"/><path d="M473.15,169.74c0-.48,0-.91-.75-1-4.41-.39-8.81-.9-13.24-.88a41.06,41.06,0,0,0-9,1.3,33,33,0,0,1-9.52,1.15c-1.77-.12-3.51-.47-5.29-.45-1.36,0-1.35,0-1.18,1.39a2.14,2.14,0,0,1,0,.44,24.64,24.64,0,0,1-.87-2.5.77.77,0,0,1,0-.89c2.7-.12,5.33.64,8,.73a25.58,25.58,0,0,0,5.67-.61,64.66,64.66,0,0,1,16.18-1.18c3,.2,5.91.07,8.86.19.76,0,1.13-.11,1.3-1,.32-1.7-.14-3.31-.19-4.95,0-.33-.05-.66-.08-1A16.41,16.41,0,0,1,473.15,169.74Z" fill="#79cbd6"/><path d="M435.33,155.88c.34.33.77.22,1.16.23,2.06.06,4.12-.13,6.18,0,2.84.16,5.68,0,8.53.19a67.17,67.17,0,0,0,9.4-.36c1.91-.12,3.83-.1,5.75-.22,1.29-.08,2.57-.29,3.86-.26a.64.64,0,0,0,.73-.54A4.54,4.54,0,0,1,472,157c-1-.78-2.24-.53-3.32-.38-1.68.26-3.38.16-5.06.33-2.64.27-5.32.07-7.95.32a59.08,59.08,0,0,1-8.41.13c-3.65-.17-7.3-.12-10.95-.18a2,2,0,0,0-1.87.67A3.6,3.6,0,0,1,435.33,155.88Z" fill="#79cbd6"/><path d="M201.82,291.58c-3.94.23-5.81,2.37-6,6.3-.14-4-2.11-6.11-6.15-6.35,3.84-.28,6-2.08,6.07-6,.68,1.47.58,3.19,1.76,4.33S200.26,291.08,201.82,291.58Z" fill="#474781"/><path d="M277.37,293.72c-1-4.54-1.3-4.82-5.87-5.85,1.36-.58,3-.5,4.14-1.6s1.3-2.73,1.7-4.24c.69,1.37.56,3,1.76,4.18s2.86,1.05,4.58,1.68c-1.77.41-3.36.48-4.58,1.63S278,292.35,277.37,293.72Z" fill="#474781"/><path d="M522.26,88.69c-3.83.26-6,2.07-6.14,6.2-.31-3.9-2.23-6-6.17-6.21,1.61-.46,3.22-.55,4.45-1.71s1-2.94,1.72-4.49c.44,1.67.41,3.41,1.68,4.57S520.68,88.25,522.26,88.69Z" fill="#474781"/><path d="M433.38,168.33l0,.89A16.47,16.47,0,0,1,433,163c.07-1-.38-1-1-.77a3.44,3.44,0,0,0-2.64,2.69c-.17.83-.42,1.64-.71,2.8a18.54,18.54,0,0,0-.7-3.23,3.75,3.75,0,0,0-2-2.08c-.7-.34-1-.23-1,.61a9.58,9.58,0,0,1-.16,3.07c-.11-1.89.07-3.79-.19-5.68.25.68.72.72,1.32.48,1.88-.73,2.25-2.41,2.59-4.1a4.51,4.51,0,0,1,.16-.84c.61,2.67,1.27,5.3,4.75,5.31A26.79,26.79,0,0,0,433.38,168.33Z" fill="#474881"/><path d="M220.05,175.27c.25,1.1.51,2.2.76,3.3a3.36,3.36,0,0,0-2.34,2.81,17.47,17.47,0,0,1-.54,2.06c-.59-1.44-.54-3.12-1.72-4.26s-2.93-1-4.57-1.61c1.68-.51,3.39-.47,4.6-1.65s1.1-2.84,1.67-4.44a11,11,0,0,1,.54,2.26,5.49,5.49,0,0,0,.82,1.81c.15.19.25.53.56.41S220,175.5,220.05,175.27Z" fill="#474781"/><path d="M456.76,266.07c-.09-3.72-2.05-5.53-5.71-5.7,4.13-1,4.88-1,5.74-5.91.57,1.51.41,3.22,1.6,4.28a7.27,7.27,0,0,0,4.48,1.44c-1.64.64-3.34.51-4.48,1.69S457.32,264.64,456.76,266.07Z" fill="#474781"/><path d="M382.89,210.3c.76,4.06,1.46,4.74,5.89,5.52-1.51.6-3.19.43-4.3,1.58s-1.25,2.7-1.46,4.5c-.65-1.66-.53-3.35-1.66-4.5s-2.8-1-4.25-1.63C380.73,215.73,382.57,213.85,382.89,210.3Z" fill="#474781"/><path d="M338.85,21c.36,3.45,1.93,5.58,5.77,5.65-3.69.3-5.49,2.23-5.73,5.84-.19-3.66-2-5.51-5.66-5.74C336.79,26.36,338.73,24.65,338.85,21Z" fill="#474781"/><path d="M322.44,115c-.22,4,2.23,5.2,5.57,5.6-3.42.21-5.59,1.67-5.78,5.38-.69-1.42-.58-3.06-1.82-4a8.51,8.51,0,0,0-4.09-1.4l2.76-.7a3,3,0,0,0,2.16-1.9c.35-.9.54-1.88.8-2.82Z" fill="#474781"/><path d="M385.59,290.42c3.38-.14,5.57-1.55,5.67-5.3.86,1.28.61,2.9,1.77,3.91s2.61,1.11,4.23,1.41c-1.47.67-3,.52-4.18,1.56s-1.09,2.6-1.71,4.24c-.42-1.71-.49-3.26-1.66-4.29S387,291,385.59,290.42Z" fill="#474781"/><path d="M243.56,32.9c-1.45.5-3,.55-4.09,1.68s-1.06,2.61-1.55,4.08c-.21-3.62-2.06-5.55-5.73-5.65,1.51-.49,3-.52,4.17-1.59s1.2-2.64,1.6-4.2C238.29,30.65,239.9,32.77,243.56,32.9Z" fill="#474781"/><path d="M473.13,160.34c-3.72.38-7.45.14-11.17.24a9.68,9.68,0,0,1-3.31,0,11.45,11.45,0,0,1,3.73-.66c3.07-.29,6.14-.65,9.24-.7,1.51,0,.4-1.08.63-1.61A6.11,6.11,0,0,1,473.13,160.34Z" fill="#79cbd6"/><path d="M456.94,45.24c.32,2,1.5,2.74,3.27,3a3.33,3.33,0,0,0-3.25,3c-.25-2-1.4-2.74-3.15-2.94C455.3,47.79,456.82,47.4,456.94,45.24Z" fill="#45457e"/><path d="M486,305a3,3,0,0,0,3.08,2.88,3.24,3.24,0,0,0-3.08,3,3.19,3.19,0,0,0-2.95-3A3,3,0,0,0,486,305Z" fill="#46467e"/><path d="M505.92,221.08c1.77-.13,2.57-1.15,2.92-2.83a2.84,2.84,0,0,0,2.9,2.82c-1.47.46-2.82.9-2.82,2.87A3.5,3.5,0,0,0,505.92,221.08Z" fill="#45457d"/><path d="M227.69,212.56a3.2,3.2,0,0,0,3,3c-1.89.16-2.68,1.3-3,3a2.92,2.92,0,0,0-3-3C226.32,215.2,227.54,214.46,227.69,212.56Z" fill="#46467f"/><path d="M326,81l-.4-.06a2.7,2.7,0,0,0-2.78-2.82c1.68-.35,2.78-1.15,2.91-3A3.22,3.22,0,0,0,328.83,78C326.33,78.86,326,79.25,326,81Z" fill="#46467f"/><path d="M385.8,57.38a3.51,3.51,0,0,0-2.88-2.82,2.79,2.79,0,0,0,2.69-2.82c.51.8.49,1.51,1,2s1.14.48,2,.89C387,55,385.89,55.68,385.8,57.38Z" fill="#45457e"/><path d="M525,270.26a2.72,2.72,0,0,0,2.68,3,3,3,0,0,0-2.8,2.81,3.09,3.09,0,0,0-2.93-2.67c.75-.53,1.5-.48,2-1S524.42,271.08,525,270.26Z" fill="#474780"/><path d="M245.9,301.68a3.27,3.27,0,0,0-2.93-3.16,2.84,2.84,0,0,0,2.85-2.83c.4,1.55,1.06,2.76,3,2.81C247.08,299,245.91,299.76,245.9,301.68Z" fill="#46467f"/><path d="M351.89,257.26c.34,1.5,1,2.63,2.73,2.88A3.13,3.13,0,0,0,351.9,263a3.14,3.14,0,0,0-2.9-2.87C350.86,260,351.59,258.83,351.89,257.26Z" fill="#45457d"/><path d="M309.19,28.75A3,3,0,0,0,306.25,26c1.8-.11,2.59-1.2,3-2.8A2.74,2.74,0,0,0,311.86,26C309.62,27,309.61,27,309.19,28.75Z" fill="#46467e"/><path d="M489.87,147c.12,1.7,1.1,2.42,2.68,2.66-1.5.37-2.62,1-2.66,2.75-.44-1.39-1-2.53-2.73-2.7C488.86,149.51,489.49,148.41,489.87,147Z" fill="#45457e"/><path d="M391.39,110.2a3.05,3.05,0,0,0,2.54,2.37,3,3,0,0,0-2.53,2.58c-.38-1.35-1-2.38-2.63-2.41.53-.57,1.24-.47,1.68-.92A6.45,6.45,0,0,0,391.39,110.2Z" fill="#474780"/><path d="M535.69,136.19c-1.34.51-2.44,1-2.52,2.66-.44-1.34-1.11-2.31-2.8-2.34.71-.65,1.4-.59,1.87-1s.34-1.13,1-1.7C533.48,135.14,534,136.26,535.69,136.19Z" fill="#44447c"/><path d="M221.75,104.94a2.8,2.8,0,0,0,2.62-2.67c.32,1.47,1,2.49,2.64,2.65-1.22.45-2.44.79-2.55,2.47A3.33,3.33,0,0,0,221.75,104.94Z" fill="#46467e"/><path d="M520.94,39.08a3,3,0,0,0-2.5,2.5,2.78,2.78,0,0,0-2.71-2.49c1.45-.33,2.52-1,2.68-2.64A3.14,3.14,0,0,0,520.94,39.08Z" fill="#46467f"/><path d="M222.63,183.47a2.23,2.23,0,0,1,.67,1.58A3,3,0,0,1,222.63,183.47Z" fill="#b97d49"/><path d="M371.79,120.81a1.59,1.59,0,0,1-1.35.4A2.19,2.19,0,0,1,371.79,120.81Z" fill="#957154"/><path d="M525.36,143.11a1.22,1.22,0,0,1-.46-1.08A1.34,1.34,0,0,1,525.36,143.11Z" fill="#4474ce"/><path d="M115.18,70.92q26.26,0,52.54,0c1.05,0,1.47.23,1.35,1.33a21.46,21.46,0,0,0,0,2.66c0,.42-.15.61-.58.61s-.61-.18-.57-.59c0-.11,0-.23,0-.34,0-2.49,0-2.49-2.6-2.49H63.89c-1.66,0-1.47-.19-1.49,1.47,0,.52,0,1,0,1.56s-.08.65-.54.65-.62-.15-.61-.59q0-1.83,0-3.66c0-.44.2-.59.6-.59s.6,0,.89,0Z" fill="#fafafb"/><path d="M141.16,169.27a6.44,6.44,0,0,1-9.1-1.91,6.33,6.33,0,0,1,1.7-8.79c.74.1.93.6.91,1.26,0,1.36.09,1.51,1.27,2a3.54,3.54,0,0,0,2.19.49c.39-.09.73.27,1,.6.44.9.66,1.94,1.76,2.38.41.17.32.7.36,1.09A4.21,4.21,0,0,1,141,168c-.08.34-.27.69,0,1A.86.86,0,0,1,141.16,169.27Z" fill="#32b1be"/><path d="M61.87,64.38c-.32-4.21-2.28-6.58-6.66-6.6,1.69-.66,3.57-.57,4.88-1.88S61.27,52.69,62,51c.12,4.14,2.18,6.4,6.5,6.66C64.12,57.93,62,60.13,61.87,64.38Z" fill="#474781"/><path d="M128.44,293.84c.81,4.59,1.64,5.16,6.32,6-1.72.6-3.47.5-4.63,1.69s-1.31,2.8-1.62,4.67c-.61-1.78-.56-3.48-1.75-4.66s-2.89-1.11-4.47-1.74C126.21,299.73,128.13,297.62,128.44,293.84Z" fill="#474781"/><path d="M85.5,191.59c3.73-.14,5.87-1.88,6-5.8.83,1.46.57,3.17,1.85,4.29s2.74,1.13,4.38,1.52c-1.52.76-3.22.54-4.39,1.7s-1.11,2.79-1.73,4.53c-.54-1.83-.51-3.51-1.8-4.64S87,192.25,85.5,191.59Z" fill="#484881"/><path d="M166.16,161.87a2,2,0,0,1,.71-.9c.84-.2,1.7-.32,2.55-.51a.94.94,0,0,1,1.07.31c0-.32-.25-.58,0-.86,3,.79,4.26,3.26,3.11,6a.9.9,0,0,0-1.22.7,4.32,4.32,0,0,0-.37,1.1,4.16,4.16,0,0,1-6-5.38.72.72,0,0,1,.41.62c.14,1.33,1,1.85,2.21,2a1.74,1.74,0,0,1,.73.23c.32.19.57.81,1,.41s1.3-1,1.54-1.8c.12-.4-.81-1-1.26-.78a1.05,1.05,0,0,1-1.46-.3,1.33,1.33,0,0,0-1.49-.61A1.89,1.89,0,0,1,166.16,161.87Z" fill="#ce5828"/><path d="M105.56,157.66a4.66,4.66,0,0,1,2.23,2.68.64.64,0,0,1-.45.3c-2.19.11-4.3.83-6.5.92a18.39,18.39,0,0,1-3.06-.23,7.53,7.53,0,0,0-2.46-.11A5.12,5.12,0,0,1,98,157.63a13.45,13.45,0,0,0,4.94.11A8.29,8.29,0,0,1,105.56,157.66Z" fill="#eabf87"/><path d="M61.7,167.23a3,3,0,0,1-3.08-2.92,3.11,3.11,0,0,1,3.14-3.05A3.14,3.14,0,0,1,64.85,164,3.09,3.09,0,0,1,61.7,167.23Z" fill="#9b9199"/><path d="M60.22,136.8c-4,.8-4.45,1.27-5.5,5.76-.24-3.4-1.73-5.57-5.43-5.64,1.3-.73,2.89-.63,4-1.72s1-2.74,1.51-4.2c.47,1.44.42,3,1.47,4.12S58.87,136.26,60.22,136.8Z" fill="#474781"/><path d="M95.32,161.22c.45-.7,1-.74,1.78-.47a13.5,13.5,0,0,0,7.19-.06,14.2,14.2,0,0,1,3.5-.35,5.9,5.9,0,0,1-.23,5.78,13.55,13.55,0,0,0-3.18.22,33,33,0,0,1-8.37,0l-.26-.38c-.1-.24-.16-.49-.24-.73-.18-.52,0-.8.58-.73a14.42,14.42,0,0,1,2,.45,6.19,6.19,0,0,0,3.44-.09,1.48,1.48,0,0,1,.64-.22c1.07.27,2-.34,3.1-.33.57,0,1.17.27,1.78-.24-1.36-.63-.5-1.83-.73-2.89-.78.52-1.77.6-1.91,1.7a.69.69,0,0,1-1-.15,1.93,1.93,0,0,0-2.55-.48,1.66,1.66,0,0,0-1.57-.29c-1.43.56-2.82.15-4.23,0A.67.67,0,0,1,95.32,161.22Z" fill="#f3ca95"/><path d="M140.9,166.58c0-.55,0-1-.72-1.25-.92-.37-1-1.44-1.29-2.29,0-.62-.41-.71-.89-.7a1.14,1.14,0,0,1-.75-.11,1,1,0,0,1-.51-.92.71.71,0,0,1,.77-.66c1.12,0,1.19-.91,1.5-1.62.2-.44-.15-.47-.42-.59-.49-.2-1.09-.35-.78-1.12a6.42,6.42,0,0,1,6.36,7.46.26.26,0,0,1-.29,0,2.27,2.27,0,0,1-.34-.92,2.67,2.67,0,0,0-2.62-1.3c-.51.19-.59.72-.74,1.16s.17.86.58,1.16C141.62,165.5,141.65,166,140.9,166.58Z" fill="#34b3bd"/><path d="M137.81,157.32c.12.73.68.75,1.26.78.76,0,.93.38.43,1-.17.2-.37.35-.36.65,0,.86-.48,1.18-1.28,1.26-.3,0-.87-.21-.83.4s.5.81,1,.7a.94.94,0,0,1,1.29.78c0,.17,0,.17-.47.17a1.54,1.54,0,0,0-1.44-.31,1.07,1.07,0,0,1-1.22-.29.59.59,0,0,0-.82-.21c-.45.2-1.6-1.57-1.27-2.06.53-.77,0-1.14-.38-1.6A5.6,5.6,0,0,1,137.81,157.32Z" fill="#7cda63"/><path d="M166.16,161.87c.74-.54,1.64,0,2.44-.35.31-.15.42.4.6.67.35.5.7,1.23,1.35.24.09-.13.35-.3.44-.26.52.25.87.74,1.38,1.05.27.17,0,1.21-.65,1.53a1.39,1.39,0,0,0-.66.69c-.53.95-1.08.93-1.79.09-.35-.4-1-.06-1.49-.45-.3-.25-1,.11-1.18-.38a4.18,4.18,0,0,1-.61-2,2.2,2.2,0,0,0,0-.44A.4.4,0,0,1,166.16,161.87Z" fill="#ee6d3e"/><path d="M140.63,146.82a2.42,2.42,0,0,1-2.38,2.43,2.38,2.38,0,1,1,2.38-2.43Z" fill="#959ea6"/><path d="M107.39,166.37c-2.39,4.06-8.84,4.18-11.2.21a.75.75,0,0,1,.74-.05,13.86,13.86,0,0,0,6.89.18A8.45,8.45,0,0,1,107.39,166.37Z" fill="#ecc18c"/><path d="M107.39,166.37a23.37,23.37,0,0,1-6.55,1.16,6.71,6.71,0,0,1-4.65-.95l-.18-.27c0-.65.4-.45.75-.4a31.29,31.29,0,0,0,8.37-.11c.81-.1,1.73-.57,2.43.32Z" fill="#fddbae"/><path d="M182.22,85v.68c-.37.13-.43-.1-.48-.39-.14-.76-.29-1.52-.45-2.27a5.56,5.56,0,0,0-4.93-4.7,8.67,8.67,0,0,1-2.66-.64c2.14-.45,4.09-.6,5.67-1.8h.21c.57.22.67.75.79,1.24.44,1.86,1,3.68,1.58,5.49C182.2,83.43,181.89,84.25,182.22,85Z" fill="#47477f"/><path d="M95.12,161.89c.3-.3.57-.53,1.06-.33a3.78,3.78,0,0,0,2.77,0c.64-.23,1.56-.59,1.94.53,0,.47.35.65.69.89.6.42,1,1,.64,1.77l-.44.23a.82.82,0,0,1-1.19-.1,2.59,2.59,0,0,0-3.18-.72c-1,.45-1.64-.38-2.31-1A3.55,3.55,0,0,1,95.12,161.89Z" fill="#fedbae"/><path d="M105.56,157.66a17.64,17.64,0,0,1-6.93.6c-.29,0-.82,0-.64-.63A6.37,6.37,0,0,1,105.56,157.66Z" fill="#efc894"/><path d="M18.21,268.56a37.19,37.19,0,0,1-.13-6,3.91,3.91,0,0,0,2.13,2.27c.95.31,1.94.52,2.93.87C21.16,266.14,19.17,266.47,18.21,268.56Z" fill="#4c4476"/><path d="M95.1,163.23c.22,0,.5,0,.64.12a2,2,0,0,0,2.42.14c1-.46,1.86.3,2.53,1a1.34,1.34,0,0,0,1.09.54c-.06.23-.2.44-.44.41-1.27-.19-2.59.62-3.83-.29-.5-.35-1.25.06-1.78-.44-.25.48.17.85,0,1.24A4,4,0,0,1,95.1,163.23Z" fill="#e8bc84"/><path d="M112,280.11a3.25,3.25,0,0,0,3.16,3,3,3,0,0,0-3.09,2.91,3.11,3.11,0,0,0-3-2.92C110.75,282.82,111.87,282.05,112,280.11Z" fill="#46467e"/><path d="M150.91,245.6a3,3,0,0,0,2.83,2.8,3.23,3.23,0,0,0-2.84,2.79,3,3,0,0,0-2.82-2.75C149.63,248,150.73,247.33,150.91,245.6Z" fill="#45457e"/><path d="M134.87,198c-.24-1.72-1.34-2.37-2.89-2.64,1.41-.42,2.74-.88,2.73-2.93.6.85.56,1.69,1.18,2.06a22,22,0,0,0,2.09,1A3,3,0,0,0,134.87,198Z" fill="#46467f"/><path d="M39.43,205.27c1.5-.31,2.56-1,2.73-2.64a3,3,0,0,0,2.77,2.66,2.77,2.77,0,0,0-2.61,3C41.38,206,41.38,206,39.43,205.27Z" fill="#44447c"/><path d="M116.15,127.59c-1.47-2.32-1.5-2.34-3-2.72a2.94,2.94,0,0,0,2.76-2.52,2.91,2.91,0,0,0,2.77,2.53C117.32,125.21,116.1,125.63,116.15,127.59Z" fill="#46467e"/><path d="M170.45,159.91l.26.49c.16.31.53.57.27,1a.49.49,0,0,1-.58.21c-.46-.16-.24-.62-.31-.93-1.12.25-2.12.81-3.22.3A3.68,3.68,0,0,1,170.45,159.91Z" fill="#e4683b"/><path d="M144.08,164.78h.09a5.58,5.58,0,0,1-3,4.49l-.06-.07c-.4-.86.12-1.48.63-2a4.91,4.91,0,0,0,1.08-1.61A1.11,1.11,0,0,1,144.08,164.78Z" fill="#32b1be"/><path d="M12.33,31.18a18.8,18.8,0,0,0-.81-3.47c.05-.17.06-.42.17-.5s.32.1.34.26c.22,1.5,1.35,2,2.82,2.26C13.84,30.21,12.75,30.16,12.33,31.18Z" fill="#49457b"/><path d="M172,167.66c-.27-1-.22-1.8.89-2.23.44-.17.71-.11.7.43A2.85,2.85,0,0,1,172,167.66Z" fill="#e5693c"/><path d="M77.31,178.14l.47.2" fill="#7a7a91"/><path d="M182.22,85a21.42,21.42,0,0,1-1.09-3.58c-.57-1.83-1-3.69-1.55-5.53A9,9,0,0,0,181.16,73a11.83,11.83,0,0,1,.88-3.24c.3,5,2.73,7.75,7.88,7.7-.26.68-.72.62-1.14.67a11.83,11.83,0,0,0-3.3.87C182.89,80.18,182.61,82.62,182.22,85Z" fill="#646177"/><path d="M415.13,191.23a95.11,95.11,0,0,1,5.43,9.71c1.16,2.27,2.42,4.48,3.54,6.77,1.21,2.48,2.33,5,3.47,7.53a82.67,82.67,0,0,1,3.51,9.21,23.63,23.63,0,0,1,1.39,8.48c-.14,2.36-1.62,3.62-3.9,3.09a18.92,18.92,0,0,1-6.71-3.5,101.93,101.93,0,0,1-14.48-13.21q-8-8.53-15.39-17.71c-4.88-6.07-9.67-12.2-14.29-18.48-3.54-4.81-7-9.66-10.42-14.59-3-4.31-5.83-8.68-8.66-13.09-2.57-4-5.1-8-7.54-12.09-2.61-4.37-5.18-8.76-7.6-13.24-2.25-4.19-4.46-8.4-6.55-12.66-1.63-3.31-3-6.73-4.36-10.17A54.85,54.85,0,0,1,330,98.72a11.59,11.59,0,0,1-.21-5.27,2.57,2.57,0,0,1,2.85-2.22A9.5,9.5,0,0,1,337.42,93c7.07,4.3,12.65,10.3,18.32,16.16,4,4.14,7.77,8.5,11.39,13l-.09.15c-1.1.54-1.56.46-2.31-.42-4-4.71-8.13-9.31-12.5-13.68a73.48,73.48,0,0,0-10-8.58,13.31,13.31,0,0,0-3.23-1.7c-2.39-.84-3.85.4-3.57,2.94a39.2,39.2,0,0,0,2.94,10.45,191.4,191.4,0,0,0,11.42,22.94c4.07,7.23,8.44,14.27,12.94,21.24S372,169.4,376.83,176.2q6.72,9.33,13.85,18.35c4.41,5.58,9,11,13.73,16.31a123.46,123.46,0,0,0,15.16,14.65,23.43,23.43,0,0,0,4,2.55,7.46,7.46,0,0,0,1.45.55c2,.54,2.9-.17,3-2.27a19.52,19.52,0,0,0-1.4-7.38,123.52,123.52,0,0,0-8.26-18.42c-1.3-2.45-2.66-4.86-3.94-7.33a1.83,1.83,0,0,1-.28-1.16C414.33,191.59,414.48,191.12,415.13,191.23Z" fill="#805f47"/><path d="M415.13,191.23a2.14,2.14,0,0,0-.7.85c-.17.59-.65,1-.85,1.59-.28.41-.55.85-1.17.7a9.22,9.22,0,0,0-2.79-3.25,117,117,0,0,1-9.47-9.82c-2.61-2.89-5.06-5.9-7.51-8.92-3.54-4.34-6.73-8.92-9.9-13.52a187,187,0,0,1-10.67-17.42c-2.7-5-5.26-10.11-7.51-15.35a12.1,12.1,0,0,0-1.29-2.44c.18-.86,1-.87,1.58-1.14a4.22,4.22,0,0,0,2.27-.39h0l.43,0c.08,1.49.93,2.71,1.51,4a206.22,206.22,0,0,0,10.1,19.33c2.49,4.27,5.19,8.4,8,12.45,3.35,4.81,6.82,9.53,10.55,14.06A223.67,223.67,0,0,0,414.19,190c.34.33.6.77,1.13.84C415.26,190.94,415.19,191.08,415.13,191.23Z" fill="#d5a47a"/><path d="M504.9,170.12a1.35,1.35,0,0,1-.33-1.86,2.23,2.23,0,0,1,2.09-1,3.87,3.87,0,0,1,1.07.24,3.91,3.91,0,0,0,3.75-.08,2,2,0,0,1,2.43.5,5.84,5.84,0,0,0,1.42,1.2c.57.25.1.52,0,.79-.12,1-1,1.19-1.68,1.35a15.6,15.6,0,0,1-7,.14C505.93,171.23,505.08,171.08,504.9,170.12Z" fill="#4474ce"/><path d="M504.9,170.12c2.09,1.44,4.45,1.18,6.78,1a5.89,5.89,0,0,0,3.67-1.23c1.33-1,2.8-1,4.39-.72A17.46,17.46,0,0,0,523,169c.29,0,.77-.18.82.29s-.36.51-.66.66a4.2,4.2,0,0,1-2.92.33c-2.26-.56-4.13.34-5.94,1.41a9.26,9.26,0,0,1-9.42-.24,1.27,1.27,0,0,1-.66-.84C504.15,170,504.47,170,504.9,170.12Z" fill="#528df8"/><path d="M487.58,162.45c0-.79.23-1.24,1.14-1.24,3.13,0,6.26,0,9.4,0a9.58,9.58,0,0,1,1.74.29c.2,0,.45.12.46.4a.46.46,0,0,1-.42.44,7.64,7.64,0,0,1-2.27.37,34.45,34.45,0,0,0-9.46.33C487.54,163.17,487.59,162.83,487.58,162.45Z" fill="#528df8"/><path d="M519.22,162.52c1.28.3,2.68-.33,4.06,0,.61.17,1.44.23,1.22,1.19-.16.71-1,.76-2,.63-1.63-.22-3.15-.94-4.82-.92-.67,0-1.33,0-2,0-.22,0-.49,0-.51-.31s.26-.3.47-.37C516.81,162.39,518,162.65,519.22,162.52Z" fill="#528df8"/><path d="M499.92,171.62a16.73,16.73,0,0,1,1.75.17.58.58,0,0,1,.49.65c-.09.45-.44.27-.71.19a6.79,6.79,0,0,0-3-.08c-.3,0-.8.11-.84-.29s.46-.52.81-.55a13.19,13.19,0,0,1,1.54,0Z" fill="#528cf7"/><path d="M144.08,164.78c-1,.37-.81,1.68-1.54,2.19a4.21,4.21,0,0,0-1.45,2.23c-.72,0-.67-.52-.55-1a4.1,4.1,0,0,0,.36-1.59c.26-.64.5-1.16-.53-1.47a1,1,0,0,1-.58-1.67c.38-.58.28-1.67,1.44-1.46C143.6,162.41,144,162.79,144.08,164.78Z" fill="#7cda63"/><path d="M135.93,164.35a1.47,1.47,0,0,1,1.53.72c.1.15.23.28.33.43.23.36,1.19-.06.91.6a3.91,3.91,0,0,1-1.21,2,1,1,0,0,1-1.15.09,3.56,3.56,0,0,0-1.83-.65,1.68,1.68,0,0,1-1.39-1.63c-.09-.85.56-.83,1.12-1S135.26,164.17,135.93,164.35Z" fill="#2da1ab"/><path d="M132.88,163.67c-.67,0-1.1-.32-1.06-.95a1.14,1.14,0,0,1,.84-1.16c.4-.09,1.83,1,1.77,1.33C134.23,163.85,133.3,163.3,132.88,163.67Z" fill="#2da1ac"/><path d="M167.36,165.56a.28.28,0,0,1,.29.24.2.2,0,0,1-.23.25.33.33,0,0,1-.22-.18A.2.2,0,0,1,167.36,165.56Z" fill="#ee6d3e"/><path d="M102.22,164.78c-.23-.93-.59-1.73-1.72-1.82-.18,0-.39-.13-.36-.33,0-.43.6-.2.75-.51a1.56,1.56,0,0,1,2.67.17.92.92,0,0,0,.89.49c1.2.07,1.5.67.89,1.78C104.29,164.55,103.33,165.71,102.22,164.78Z" fill="#e8bc84"/><path d="M105.34,164.56c0-.76,0-1.51-.89-1.78-.2-.25-.66-.54-.31-.81a13.12,13.12,0,0,1,2.29-1.35c.25-.13.45.19.44.49s.1,1-.1,1.3c-.49.84,0,1,.63,1.23.2.06.51,0,.46.34a.9.9,0,0,1-.4.49A2.11,2.11,0,0,1,105.34,164.56Z" fill="#fddbae"/><path d="M367.12,122.12a3.35,3.35,0,0,1-2.2.68c-.5,0-.75-.42-1.05-.75-3.16-3.54-6.27-7.11-9.69-10.39a57.08,57.08,0,0,0-6.73-5.79,12.79,12.79,0,0,0-3.3-1.81c-1.5-.48-2.3.07-2.38,1.63a13.06,13.06,0,0,0,.69,4.47,86.58,86.58,0,0,0,5,12c1,2.17,2.18,4.29,3.27,6.43a13.81,13.81,0,0,0,1.26,2.09,15,15,0,0,0,2.12,3.92c5.51,9.8,11.59,19.26,17.91,28.57q11.63,17.13,24.66,33.22a17.77,17.77,0,0,1,1.84,2.22,16.57,16.57,0,0,0,3.46,3.87,50.47,50.47,0,0,0,3.77,4.37,92.2,92.2,0,0,0,11.73,11.31,15,15,0,0,0,4.37,2.59c1.4.48,2.15,0,2.28-1.47a11.76,11.76,0,0,0-.63-4.48,69.28,69.28,0,0,0-3.32-8.59c-1.81-3.94-3.74-7.81-5.85-11.59a4.17,4.17,0,0,0-1-1.2,2.89,2.89,0,0,1,1.1-1.34,6.7,6.7,0,0,0,1.19,2.46q3.45,6.06,6.47,12.34A90.23,90.23,0,0,1,426.73,218c.92,2.82,1.87,5.59,1.74,8.62-.09,2.08-1.18,3-3.2,2.46a18.19,18.19,0,0,1-6.59-3.75,113.11,113.11,0,0,1-12.14-11.53c-3.43-3.61-6.62-7.44-9.84-11.24s-6.07-7.44-9.06-11.19c-2.6-3.26-5-6.64-7.53-10-4.45-6-8.68-12.1-12.88-18.25-3.16-4.63-6.2-9.34-9.17-14.09-2.58-4.14-4.95-8.4-7.47-12.56-2.37-3.91-4.54-7.94-6.59-12-1.63-3.22-3.31-6.42-4.69-9.77a71.59,71.59,0,0,1-3.59-9.88,13.15,13.15,0,0,1-.67-5.33c.33-2.1,1.55-2.65,3.67-2.1a14.16,14.16,0,0,1,4.9,2.72,86.38,86.38,0,0,1,10.8,9.69c3.65,3.9,7.36,7.77,10.69,12C365.74,122.57,366.43,122.16,367.12,122.12Z" fill="#957154"/><path d="M363.32,123.64c.74,0,.89.59,1.09,1.08,1,2.57,2.23,5.07,3.45,7.55s2.43,4.81,3.65,7.22c2.49,4.91,5.37,9.6,8.31,14.26,2.65,4.18,5.52,8.21,8.4,12.23,3.27,4.56,6.84,8.9,10.51,13.14a142,142,0,0,0,10,10.67l3.39,3.2c.39.37.61.73.34,1.25,0,.14.07,0,0,.11a11,11,0,0,1-5.14,4.56c-.83-.32-1.3-1.07-1.94-1.62a119.82,119.82,0,0,1-11.62-11.58c-3.21-3.59-6.31-7.26-9.25-11.06a213.31,213.31,0,0,1-14.06-20.48,183.45,183.45,0,0,1-10.37-19.73c-.83-1.85-1.6-3.74-2.33-5.63a3.19,3.19,0,0,0-1.13-1.58c-.07-.5.28-.74.62-1a35.65,35.65,0,0,1,4.83-2.6C362.47,123.51,362.9,123.31,363.32,123.64Z" fill="#efb559"/><path d="M352.21,130.53l3.1-2.49c.58,1.23,1,2.54,1.48,3.8a152.31,152.31,0,0,0,8,16.71A202.35,202.35,0,0,0,379.12,171a196.59,196.59,0,0,0,12.64,15.6c2.63,2.91,5.32,5.76,8.11,8.51,1.82,1.78,3.78,3.41,5.72,5.06a20,20,0,0,1-3.32,2c-.44.23-.76,0-1.07-.29a39.26,39.26,0,0,1-3-3.07c-7.93-9.3-15.16-19.13-22.21-29.1-6.63-9.36-12.86-19-18.79-28.81a66.13,66.13,0,0,1-3.44-6.09c-.44-.9-.86-1.82-1.31-2.72A1.64,1.64,0,0,1,352.21,130.53Z" fill="#efb559"/><path d="M398.22,198.79c1,.87,2,1.74,3,2.63.33.29.6.66,1.08.73a.77.77,0,0,1-.49.41c-.77-.13-1.12-.81-1.59-1.3A10.71,10.71,0,0,1,398.22,198.79Z" fill="#ce9e6f"/><path d="M352.21,130.53c.43,1.46,1.25,2.77,1.57,4.26a10.42,10.42,0,0,1-2-4A.44.44,0,0,1,352.21,130.53Z" fill="#d1a070"/><path d="M405.59,200.14c-1.44,0-2.06-1.24-2.92-2a141.57,141.57,0,0,1-12.92-13.23q-4.83-5.49-9.21-11.33c-2.72-3.62-5.36-7.32-7.83-11.13s-5-7.84-7.27-11.88c-2-3.59-3.94-7.24-5.7-11-1.58-3.38-3.07-6.79-4.38-10.28a1.73,1.73,0,0,1-.05-1.28l1.33-.84c.65-.21.95,0,1.2.68,1.67,4.42,3.61,8.72,5.71,13q3,6,6.4,11.77c2.7,4.56,5.58,9,8.65,13.36,2.53,3.58,5.11,7.13,7.86,10.54,2.31,2.87,4.66,5.72,7.13,8.45,2.73,3,5.51,6,8.42,8.82,1.74,1.7,3.76,3.11,5.33,5C406.75,199.2,406.32,199.86,405.59,200.14Z" fill="#f6cc76"/><path d="M55.94,186.82H54.46l-.38-5c-.14-1.73-.26-3.58-.27-4.5l-2.39,8.23H50l-2.52-8.24c0,1.29-.08,3-.2,4.62l-.37,4.87H45.47l.91-11h2l2.32,8,2.21-8H55Z" fill="#fff"/><path d="M64.78,183.11H59.4c.15,1.95,1.06,2.7,2.28,2.7a3.51,3.51,0,0,0,2.19-.74l.64.89a4.63,4.63,0,0,1-2.94,1c-2.36,0-3.73-1.65-3.73-4.32s1.32-4.5,3.5-4.5,3.47,1.59,3.47,4.16C64.81,182.64,64.8,182.91,64.78,183.11Zm-1.42-1.19c0-1.65-.66-2.56-2-2.56-1.12,0-1.85.78-2,2.66h4Z" fill="#fff"/><path d="M71.6,178.29l-.27,1.44a2.5,2.5,0,0,0-.74-.1c-1.06,0-1.67.75-2,2.37v4.82H67.1v-8.44h1.26l.15,1.72a2.41,2.41,0,0,1,2.26-1.91A3.31,3.31,0,0,1,71.6,178.29Z" fill="#fff"/><path d="M74.7,186.82H73.23V175l1.47-.18Zm1.74-4.71,3.46,4.71H78.14l-3.34-4.61,3.1-3.83h1.65Z" fill="#fff"/><path d="M87.63,186.82H86.37l-.12-1.31a2.83,2.83,0,0,1-2.62,1.5c-1.47,0-2.35-.93-2.35-2.58v-6.05h1.47v5.89c0,1.16.38,1.59,1.29,1.59a2.54,2.54,0,0,0,2.12-1.46v-6h1.47Z" fill="#fff"/><path d="M95.07,178.29l-.27,1.44a2.5,2.5,0,0,0-.74-.1c-1.06,0-1.66.75-2,2.37v4.82H90.57v-8.44h1.27L92,180.1a2.41,2.41,0,0,1,2.26-1.91A3.31,3.31,0,0,1,95.07,178.29Z" fill="#fff"/><path d="M84.76,209.67H83.13l-3.56-11h1.64L84,208l2.77-9.38h1.53Z" fill="#fff"/><path d="M95.83,206H90.46c.14,2,1.05,2.71,2.27,2.71a3.51,3.51,0,0,0,2.19-.74l.64.88a4.58,4.58,0,0,1-2.94,1.06c-2.36,0-3.73-1.65-3.73-4.32s1.32-4.5,3.5-4.5,3.48,1.59,3.48,4.16A7.37,7.37,0,0,1,95.83,206Zm-1.42-1.18c0-1.65-.66-2.56-2-2.56-1.12,0-1.85.78-2,2.66h4Z" fill="#fff"/><path d="M104.57,203.62v6H103.1v-5.84c0-1.27-.52-1.64-1.33-1.64a2.56,2.56,0,0,0-2.15,1.49v6H98.15v-8.44h1.27l.12,1.25a3.09,3.09,0,0,1,2.58-1.44A2.31,2.31,0,0,1,104.57,203.62Z" fill="#fff"/><path d="M113.67,209.67h-1.26l-.11-1.31a2.84,2.84,0,0,1-2.63,1.5c-1.47,0-2.35-.93-2.35-2.58v-6.05h1.47v5.89c0,1.16.39,1.59,1.3,1.59a2.54,2.54,0,0,0,2.11-1.46v-6h1.47Z" fill="#fff"/><path d="M121.82,202l-.63.93a3.89,3.89,0,0,0-2.19-.72c-1,0-1.55.43-1.55,1.1s.45,1,1.81,1.36c1.77.45,2.8,1.16,2.8,2.63,0,1.76-1.62,2.56-3.33,2.56a4.69,4.69,0,0,1-3.19-1.1l.79-.9a3.82,3.82,0,0,0,2.37.82c1.1,0,1.8-.48,1.8-1.28s-.41-1.16-2-1.59c-1.83-.48-2.55-1.26-2.55-2.45,0-1.34,1.3-2.32,3-2.32A4.47,4.47,0,0,1,121.82,202Z" fill="#fff"/><path d="M159.18,209.67h-1.47l-.39-5c-.14-1.73-.25-3.59-.27-4.5l-2.39,8.23h-1.42l-2.51-8.24c0,1.29-.08,3-.21,4.62l-.37,4.87h-1.44l.91-11h2l2.32,8,2.21-8h2.07Z" fill="#fff"/><path d="M168,208.84l-.33,1A1.7,1.7,0,0,1,166,208.6a2.87,2.87,0,0,1-2.52,1.26,2.44,2.44,0,0,1-2.68-2.54c0-1.81,1.36-2.79,3.71-2.79h1.3v-.62c0-1.22-.6-1.67-1.76-1.67a7.54,7.54,0,0,0-2.28.45l-.37-1.07a8.15,8.15,0,0,1,2.92-.58c2,0,3,1,3,2.8v3.86C167.29,208.44,167.56,208.68,168,208.84Zm-2.17-1.4v-1.93h-1.11c-1.55,0-2.34.57-2.34,1.73a1.33,1.33,0,0,0,1.46,1.52A2.18,2.18,0,0,0,165.82,207.44Z" fill="#fff"/><path d="M174.76,201.14l-.27,1.44a2.45,2.45,0,0,0-.74-.1c-1.05,0-1.66.75-2,2.37v4.82h-1.47v-8.44h1.27l.14,1.72a2.41,2.41,0,0,1,2.26-1.91A3.31,3.31,0,0,1,174.76,201.14Z" fill="#fff"/><path d="M181.35,202l-.62.93a3.89,3.89,0,0,0-2.2-.72c-1,0-1.55.43-1.55,1.1s.45,1,1.81,1.36c1.78.45,2.8,1.16,2.8,2.63,0,1.76-1.61,2.56-3.33,2.56a4.66,4.66,0,0,1-3.18-1.1l.78-.9a3.84,3.84,0,0,0,2.37.82c1.1,0,1.81-.48,1.81-1.28s-.42-1.16-2-1.59c-1.82-.48-2.54-1.26-2.54-2.45,0-1.34,1.29-2.32,3-2.32A4.46,4.46,0,0,1,181.35,202Z" fill="#fff"/><path d="M248.44,233.36c0,2.31-1.11,3.17-2.89,3.73l-.4-1.1c1.46-.58,1.76-1.22,1.76-2.69v-9.43h1.53Z" fill="#fff"/><path d="M257.68,234.9h-1.26l-.11-1.32a2.84,2.84,0,0,1-2.63,1.51c-1.47,0-2.35-.93-2.35-2.58v-6h1.47v5.89c0,1.15.39,1.59,1.3,1.59a2.54,2.54,0,0,0,2.11-1.46v-6h1.47Z" fill="#fff"/><path d="M267.62,230.67c0,2.56-1.14,4.42-3.31,4.42a2.74,2.74,0,0,1-2.21-1v4l-1.47.18V226.46h1.26l.11,1.14a3.07,3.07,0,0,1,2.5-1.33C266.74,226.27,267.62,228,267.62,230.67Zm-1.58,0c0-2.19-.64-3.23-1.91-3.23a2.58,2.58,0,0,0-2,1.31v4.11a2.17,2.17,0,0,0,1.86,1C265.3,233.89,266,232.88,266,230.67Z" fill="#fff"/><path d="M271.76,223.42a1,1,0,1,1-1-1A1,1,0,0,1,271.76,223.42Zm-.28,11.48H270v-8.44h1.48Z" fill="#fff"/><path d="M278.72,234.51a3.18,3.18,0,0,1-1.89.58,2.12,2.12,0,0,1-2.27-2.4V227.6h-1.47v-1.14h1.47v-1.9l1.47-.18v2.08h2l-.16,1.14H276v5c0,.85.28,1.25,1,1.25a2.3,2.3,0,0,0,1.12-.33Z" fill="#fff"/><path d="M286.34,231.18H281c.15,2,1.06,2.71,2.27,2.71a3.58,3.58,0,0,0,2.2-.74l.64.88a4.59,4.59,0,0,1-2.95,1.06c-2.35,0-3.73-1.65-3.73-4.32s1.33-4.5,3.51-4.5,3.47,1.58,3.47,4.16C286.37,230.72,286.36,231,286.34,231.18ZM284.92,230c0-1.65-.66-2.56-2-2.56-1.12,0-1.86.78-2,2.65h4Z" fill="#fff"/><path d="M293.16,226.37l-.28,1.44a2.39,2.39,0,0,0-.73-.1c-1.06,0-1.67.75-2,2.37v4.82h-1.47v-8.44h1.26l.15,1.71a2.4,2.4,0,0,1,2.25-1.9A3.39,3.39,0,0,1,293.16,226.37Z" fill="#fff"/><path d="M354.31,216l-.83.92a3.79,3.79,0,0,0-2.51-1c-1.11,0-2,.52-2,1.57s.43,1.38,2.42,2c1.76.54,3.26,1.23,3.26,3.34,0,1.92-1.45,3.27-3.93,3.27a5.14,5.14,0,0,1-3.75-1.43l.83-.92a4.37,4.37,0,0,0,2.9,1.1c1.3,0,2.37-.64,2.37-2,0-1.07-.51-1.55-2.39-2.13-2.14-.65-3.26-1.47-3.26-3.18s1.44-2.88,3.47-2.88A4.62,4.62,0,0,1,354.31,216Z" fill="#fff"/><path d="M363.13,225.06l-.34,1a1.7,1.7,0,0,1-1.65-1.27,2.88,2.88,0,0,1-2.51,1.27,2.45,2.45,0,0,1-2.69-2.55c0-1.81,1.36-2.78,3.71-2.78H361v-.63c0-1.21-.59-1.66-1.76-1.66a7.43,7.43,0,0,0-2.27.45l-.37-1.07a8.14,8.14,0,0,1,2.91-.58c2,0,3,1,3,2.8v3.86C362.42,224.66,362.69,224.9,363.13,225.06ZM361,223.67v-1.94h-1.1c-1.56,0-2.34.58-2.34,1.73,0,1,.49,1.52,1.45,1.52A2.17,2.17,0,0,0,361,223.67Z" fill="#fff"/><path d="M369.7,225.51a3.18,3.18,0,0,1-1.89.58,2.12,2.12,0,0,1-2.27-2.4V218.6h-1.47v-1.14h1.47v-1.9l1.47-.18v2.08h2l-.16,1.14H367v5c0,.85.28,1.25,1,1.25a2.3,2.3,0,0,0,1.12-.33Z" fill="#fff"/><path d="M377.43,225.9h-1.26l-.12-1.32a2.82,2.82,0,0,1-2.62,1.51c-1.47,0-2.35-.93-2.35-2.58v-6h1.47v5.89c0,1.15.38,1.59,1.29,1.59a2.54,2.54,0,0,0,2.12-1.46v-6h1.47Z" fill="#fff"/><path d="M384.87,217.37l-.27,1.44a2.45,2.45,0,0,0-.74-.1c-1.06,0-1.66.75-2,2.37v4.82h-1.47v-8.44h1.27l.14,1.71a2.41,2.41,0,0,1,2.26-1.9A3.31,3.31,0,0,1,384.87,217.37Z" fill="#fff"/><path d="M392.92,219.85v6.05h-1.47v-5.85c0-1.26-.52-1.63-1.33-1.63a2.55,2.55,0,0,0-2.15,1.49v6H386.5v-8.44h1.26l.13,1.25a3.09,3.09,0,0,1,2.58-1.44A2.31,2.31,0,0,1,392.92,219.85Z" fill="#fff"/><path d="M437.49,197.88a3.54,3.54,0,0,1-3.88,3.73,3.5,3.5,0,0,1-3.84-3.73v-7.49h1.52v7.38c0,1.71.76,2.56,2.32,2.56s2.34-.85,2.34-2.56v-7.38h1.54Z" fill="#fff"/><path d="M444.89,192.89l-.27,1.44a2.39,2.39,0,0,0-.73-.1c-1.06,0-1.67.75-2,2.37v4.82H440.4V193h1.26l.15,1.71a2.4,2.4,0,0,1,2.25-1.9A3.25,3.25,0,0,1,444.89,192.89Z" fill="#fff"/><path d="M452.56,200.59l-.34,1a1.71,1.71,0,0,1-1.65-1.27,2.87,2.87,0,0,1-2.51,1.27,2.45,2.45,0,0,1-2.69-2.55c0-1.8,1.36-2.78,3.72-2.78h1.29v-.63c0-1.21-.59-1.66-1.76-1.66a7.49,7.49,0,0,0-2.27.45l-.37-1.07a8.14,8.14,0,0,1,2.91-.58c2,0,3,1,3,2.8v3.86C451.86,200.18,452.13,200.42,452.56,200.59Zm-2.18-1.4v-1.93h-1.1c-1.55,0-2.34.57-2.34,1.72a1.34,1.34,0,0,0,1.46,1.53A2.17,2.17,0,0,0,450.38,199.19Z" fill="#fff"/><path d="M461.25,195.37v6h-1.48v-5.85c0-1.26-.51-1.63-1.32-1.63a2.55,2.55,0,0,0-2.15,1.49v6h-1.47V193h1.26l.13,1.25a3.07,3.07,0,0,1,2.58-1.44A2.31,2.31,0,0,1,461.25,195.37Z" fill="#fff"/><path d="M470.35,201.42h-1.26L469,200.1a2.82,2.82,0,0,1-2.62,1.51c-1.47,0-2.35-.93-2.35-2.58V193h1.47v5.89c0,1.15.38,1.59,1.3,1.59a2.54,2.54,0,0,0,2.11-1.46v-6h1.47Z" fill="#fff"/><path d="M478.49,193.75l-.62.93a3.89,3.89,0,0,0-2.19-.72c-1,0-1.56.43-1.56,1.1s.45,1,1.81,1.36c1.78.45,2.8,1.16,2.8,2.63,0,1.76-1.61,2.56-3.32,2.56a4.74,4.74,0,0,1-3.19-1.1l.78-.9a3.86,3.86,0,0,0,2.37.81c1.11,0,1.81-.48,1.81-1.28s-.41-1.15-2.05-1.58c-1.82-.48-2.54-1.26-2.54-2.45,0-1.34,1.29-2.32,3-2.32A4.46,4.46,0,0,1,478.49,193.75Z" fill="#fff"/><path d="M129.2,177h-4.28v3.6h3.72v1.22h-3.72v3.77h4.58v1.22h-6.1v-11h6Z" fill="#fff"/><path d="M136.17,178.29l-.27,1.44a2.45,2.45,0,0,0-.74-.1c-1,0-1.66.75-2,2.37v4.82h-1.48v-8.44h1.27l.14,1.72a2.41,2.41,0,0,1,2.26-1.91A3.25,3.25,0,0,1,136.17,178.29Z" fill="#fff"/><path d="M144,175v11.83h-1.3l-.14-1.17a2.81,2.81,0,0,1-2.43,1.36c-2.05,0-3.19-1.74-3.19-4.37s1.25-4.45,3.31-4.45a3,3,0,0,1,2.28,1v-4.42Zm-1.47,9.6v-4.12a2.41,2.41,0,0,0-2-1.11c-1.26,0-2,1.06-2,3.25s.7,3.23,1.92,3.23A2.41,2.41,0,0,0,142.51,184.59Z" fill="#fff"/><path d="M153.31,183.11h-5.38c.14,1.95,1.06,2.7,2.27,2.7a3.52,3.52,0,0,0,2.2-.74l.64.89a4.65,4.65,0,0,1-2.95,1c-2.35,0-3.73-1.65-3.73-4.32s1.33-4.5,3.51-4.5,3.47,1.59,3.47,4.16C153.34,182.64,153.32,182.91,153.31,183.11Zm-1.43-1.19c0-1.65-.65-2.56-2-2.56-1.12,0-1.86.78-2,2.66h3.95Z" fill="#fff"/><path d="M130.19,138.78h-1.47l-.39-5c-.14-1.73-.25-3.58-.27-4.5l-2.38,8.23h-1.43l-2.51-8.24c0,1.29-.08,3-.21,4.62l-.37,4.87h-1.44l.91-11h2.05l2.32,8,2.21-8h2.07Z" fill="#fff"/><path d="M139.61,134.55c0,2.61-1.37,4.42-3.76,4.42s-3.76-1.73-3.76-4.4,1.38-4.42,3.78-4.42S139.61,131.88,139.61,134.55Zm-5.94,0c0,2.19.77,3.22,2.18,3.22s2.18-1,2.18-3.24-.77-3.21-2.16-3.21S133.67,132.36,133.67,134.57Z" fill="#fff"/><path d="M148.41,132.73v6.05h-1.47v-5.84c0-1.27-.51-1.64-1.33-1.64a2.56,2.56,0,0,0-2.14,1.49v6H142v-8.44h1.27l.13,1.25a3.06,3.06,0,0,1,2.57-1.44A2.31,2.31,0,0,1,148.41,132.73Z" fill="#fff"/><path d="M157.76,127v11.83h-1.3l-.14-1.17a2.84,2.84,0,0,1-2.44,1.36c-2,0-3.18-1.74-3.18-4.37s1.25-4.45,3.31-4.45a3,3,0,0,1,2.27,1v-4.42Zm-1.48,9.6v-4.13a2.42,2.42,0,0,0-1.95-1.1c-1.26,0-2.05,1.06-2.05,3.25s.71,3.23,1.92,3.23A2.4,2.4,0,0,0,156.28,136.55Z" fill="#fff"/><path d="M288.72,54.38l-.89.93a3.46,3.46,0,0,0-2.42-.9c-1.59,0-3.17,1.2-3.17,4.45s1.07,4.47,3,4.47a4.31,4.31,0,0,0,2.1-.5V59.5h-2l-.17-1.23h3.63V63.6a7.07,7.07,0,0,1-3.6,1c-2.85,0-4.63-1.9-4.63-5.71s2.24-5.7,4.79-5.7A4.67,4.67,0,0,1,288.72,54.38Z" fill="#fff"/><path d="M297.67,63.55l-.34,1a1.7,1.7,0,0,1-1.65-1.26,2.87,2.87,0,0,1-2.51,1.26A2.45,2.45,0,0,1,290.48,62c0-1.81,1.36-2.79,3.71-2.79h1.3v-.62c0-1.22-.59-1.66-1.76-1.66a7.69,7.69,0,0,0-2.27.44l-.37-1.07a8.36,8.36,0,0,1,2.91-.58c2,0,3,1,3,2.81v3.85C297,63.15,297.23,63.39,297.67,63.55Zm-2.18-1.39V60.22h-1.11c-1.55,0-2.33.58-2.33,1.73a1.33,1.33,0,0,0,1.45,1.52A2.17,2.17,0,0,0,295.49,62.16Z" fill="#fff"/><path d="M305.14,56.72l-.63.92a3.89,3.89,0,0,0-2.19-.72c-1,0-1.55.44-1.55,1.11s.44,1,1.81,1.36c1.77.45,2.8,1.15,2.8,2.62,0,1.76-1.62,2.56-3.33,2.56a4.69,4.69,0,0,1-3.19-1.1l.79-.9a3.76,3.76,0,0,0,2.37.82c1.1,0,1.8-.48,1.8-1.28s-.41-1.15-2-1.59c-1.83-.48-2.55-1.26-2.55-2.44,0-1.35,1.3-2.33,3-2.33A4.48,4.48,0,0,1,305.14,56.72Z" fill="#fff"/><path d="M314.4,60.16c0,2.56-1.13,4.41-3.31,4.41a2.71,2.71,0,0,1-2.21-1v4l-1.47.17V56h1.26l.11,1.13a3.09,3.09,0,0,1,2.5-1.33C313.52,55.75,314.4,57.5,314.4,60.16Zm-1.58,0c0-2.2-.64-3.24-1.91-3.24a2.56,2.56,0,0,0-2,1.32v4.11a2.16,2.16,0,0,0,1.86,1C312.08,63.37,312.82,62.37,312.82,60.16Z" fill="#fff"/><path d="M316.69,62.72V52.55l1.47-.17V62.69c0,.44.14.67.53.67a1.3,1.3,0,0,0,.54-.1l.39,1a2.56,2.56,0,0,1-1.17.28A1.66,1.66,0,0,1,316.69,62.72Z" fill="#fff"/><path d="M327.76,63.55l-.33,1a1.69,1.69,0,0,1-1.65-1.26,2.89,2.89,0,0,1-2.52,1.26A2.45,2.45,0,0,1,320.57,62c0-1.81,1.37-2.79,3.72-2.79h1.29v-.62c0-1.22-.59-1.66-1.76-1.66a7.81,7.81,0,0,0-2.27.44l-.37-1.07a8.37,8.37,0,0,1,2.92-.58c2,0,3,1,3,2.81v3.85C327.06,63.15,327.33,63.39,327.76,63.55Zm-2.18-1.39V60.22h-1.1c-1.55,0-2.34.58-2.34,1.73a1.33,1.33,0,0,0,1.46,1.52A2.16,2.16,0,0,0,325.58,62.16Z" fill="#fff"/><path d="M336.45,58.33v6H335V58.54c0-1.26-.52-1.63-1.33-1.63a2.55,2.55,0,0,0-2.15,1.49v6H330V56h1.26l.13,1.25A3.07,3.07,0,0,1,334,55.75,2.31,2.31,0,0,1,336.45,58.33Z" fill="#fff"/><path d="M345.68,60.67H340.3c.15,1.95,1.06,2.7,2.28,2.7a3.56,3.56,0,0,0,2.19-.73l.64.88a4.63,4.63,0,0,1-3,1c-2.35,0-3.73-1.65-3.73-4.32s1.33-4.5,3.51-4.5,3.47,1.59,3.47,4.17C345.71,60.2,345.7,60.48,345.68,60.67Zm-1.42-1.19c0-1.64-.66-2.56-2-2.56-1.12,0-1.85.79-2,2.66h4Z" fill="#fff"/><path d="M352.3,64a3.21,3.21,0,0,1-1.88.57,2.12,2.12,0,0,1-2.28-2.4V57.08h-1.47V56h1.47V54l1.48-.17V56h2l-.16,1.13h-1.84v5c0,.85.27,1.25,1,1.25a2.22,2.22,0,0,0,1.12-.34Z" fill="#fff"/><path d="M359.92,60.67h-5.38c.15,1.95,1.06,2.7,2.28,2.7a3.56,3.56,0,0,0,2.19-.73l.64.88a4.63,4.63,0,0,1-2.95,1c-2.35,0-3.73-1.65-3.73-4.32s1.33-4.5,3.51-4.5S360,57.34,360,59.92C360,60.2,359.94,60.48,359.92,60.67Zm-1.42-1.19c0-1.64-.66-2.56-2-2.56-1.12,0-1.86.79-2,2.66h4Z" fill="#fff"/><path d="M368.66,58.33v6h-1.48V58.54c0-1.26-.51-1.63-1.32-1.63a2.55,2.55,0,0,0-2.15,1.49v6h-1.47V56h1.26l.13,1.25a3.06,3.06,0,0,1,2.58-1.45A2.31,2.31,0,0,1,368.66,58.33Z" fill="#fff"/><path d="M455,54.57h-4.27v3.6h3.71v1.22h-3.71v3.78h4.58v1.21h-6.1v-11h6Z" fill="#fff"/><path d="M459.42,52.91a1,1,0,1,1-1-1A1,1,0,0,1,459.42,52.91Zm-.29,11.47h-1.47V56h1.47Z" fill="#fff"/><path d="M467.28,56.72l-.62.92a3.92,3.92,0,0,0-2.2-.72c-1,0-1.55.44-1.55,1.11s.45,1,1.81,1.36c1.78.45,2.8,1.15,2.8,2.62,0,1.76-1.62,2.56-3.33,2.56a4.66,4.66,0,0,1-3.18-1.1l.78-.9a3.78,3.78,0,0,0,2.37.82c1.1,0,1.81-.48,1.81-1.28s-.42-1.15-2.05-1.59c-1.83-.48-2.55-1.26-2.55-2.44,0-1.35,1.3-2.33,3.05-2.33A4.47,4.47,0,0,1,467.28,56.72Z" fill="#fff"/><path d="M474.05,55.85l-.27,1.44a2.89,2.89,0,0,0-.74-.09c-1.06,0-1.66.75-2,2.36v4.82h-1.47V56h1.26l.15,1.71a2.41,2.41,0,0,1,2.26-1.91A3.85,3.85,0,0,1,474.05,55.85Z" fill="#fff"/><path d="M477.44,52.91a1,1,0,1,1-1-1A1,1,0,0,1,477.44,52.91Zm-.29,11.47h-1.47V56h1.47Z" fill="#fff"/><path d="M486.48,60.67H481.1c.15,1.95,1.06,2.7,2.28,2.7a3.56,3.56,0,0,0,2.19-.73l.64.88a4.63,4.63,0,0,1-2.95,1c-2.35,0-3.73-1.65-3.73-4.32s1.33-4.5,3.51-4.5,3.47,1.59,3.47,4.17C486.51,60.2,486.5,60.48,486.48,60.67Zm-1.42-1.19c0-1.64-.66-2.56-2-2.56-1.12,0-1.86.79-2,2.66h4Z" fill="#fff"/><path d="M494,56.72l-.62.92a3.92,3.92,0,0,0-2.2-.72c-1,0-1.55.44-1.55,1.11s.45,1,1.81,1.36c1.77.45,2.8,1.15,2.8,2.62,0,1.76-1.62,2.56-3.33,2.56a4.71,4.71,0,0,1-3.19-1.1l.79-.9a3.78,3.78,0,0,0,2.37.82c1.1,0,1.81-.48,1.81-1.28s-.42-1.15-2.05-1.59c-1.83-.48-2.55-1.26-2.55-2.44,0-1.35,1.3-2.33,3-2.33A4.48,4.48,0,0,1,494,56.72Z" fill="#fff"/><path d="M502.66,60.67h-5.38c.14,1.95,1.05,2.7,2.27,2.7a3.54,3.54,0,0,0,2.19-.73l.64.88a4.61,4.61,0,0,1-2.94,1c-2.35,0-3.73-1.65-3.73-4.32s1.33-4.5,3.5-4.5,3.48,1.59,3.48,4.17C502.69,60.2,502.67,60.48,502.66,60.67Zm-1.43-1.19c0-1.64-.65-2.56-2-2.56-1.12,0-1.86.79-2,2.66h4Z" fill="#fff"/><path d="M511.39,58.33v6h-1.47V58.54c0-1.26-.51-1.63-1.33-1.63a2.54,2.54,0,0,0-2.14,1.49v6H505V56h1.27l.13,1.25a3,3,0,0,1,2.57-1.45A2.31,2.31,0,0,1,511.39,58.33Z" fill="#fff"/><line x1="101.55" y1="174.51" x2="101.55" y2="194.97" fill="none" stroke="#fff" stroke-linecap="round" stroke-miterlimit="10"/><path d="M56.51,263.21l-.83.93a3.82,3.82,0,0,0-2.52-1c-1.1,0-2,.51-2,1.57s.43,1.37,2.42,2c1.76.54,3.26,1.23,3.26,3.35,0,1.92-1.46,3.26-3.94,3.26a5.17,5.17,0,0,1-3.74-1.42L50,271a4.37,4.37,0,0,0,2.9,1.1c1.29,0,2.37-.64,2.37-2,0-1.07-.52-1.55-2.39-2.13-2.14-.65-3.26-1.47-3.26-3.18s1.44-2.88,3.47-2.88A4.66,4.66,0,0,1,56.51,263.21Z" fill="#fff"/><path d="M65.93,268.92c0,2.61-1.37,4.42-3.76,4.42s-3.76-1.73-3.76-4.4,1.38-4.42,3.78-4.42S65.93,266.25,65.93,268.92Zm-5.94,0c0,2.19.77,3.22,2.18,3.22s2.18-1,2.18-3.24-.77-3.21-2.16-3.21S60,266.73,60,268.94Z" fill="#fff"/><path d="M74.73,267.1v6H73.26v-5.84c0-1.27-.51-1.64-1.33-1.64a2.56,2.56,0,0,0-2.14,1.49v6H68.31v-8.44h1.27l.13,1.25a3.06,3.06,0,0,1,2.57-1.44A2.31,2.31,0,0,1,74.73,267.1Z" fill="#fff"/><path d="M84,267.1v6H82.52v-5.84c0-1.27-.51-1.64-1.32-1.64a2.56,2.56,0,0,0-2.15,1.49v6H77.58v-8.44h1.26L79,266a3.07,3.07,0,0,1,2.58-1.44A2.31,2.31,0,0,1,84,267.1Z" fill="#fff"/><path d="M93.23,269.43H87.85c.14,2,1.06,2.71,2.27,2.71a3.52,3.52,0,0,0,2.2-.74l.64.88A4.61,4.61,0,0,1,90,273.34c-2.35,0-3.73-1.65-3.73-4.32s1.33-4.5,3.51-4.5,3.47,1.59,3.47,4.16C93.26,269,93.24,269.24,93.23,269.43Zm-1.43-1.18c0-1.65-.65-2.56-2-2.56-1.12,0-1.86.78-2,2.66h4Z" fill="#fff"/><line x1="14.59" y1="233.9" x2="42.18" y2="265.58" fill="none" stroke="#fff" stroke-linecap="round" stroke-miterlimit="10"/><path d="M480.4,225.88h-2l-4.48-9.37c.08.92.21,2.26.21,4.31v5.06h-1.43v-11h2l4.53,9.38c0-.26-.21-2-.21-3.36v-6h1.42Z" fill="#fff"/><path d="M489.86,222.16h-5.38c.15,2,1.06,2.71,2.27,2.71a3.52,3.52,0,0,0,2.2-.74l.64.88a4.59,4.59,0,0,1-2.95,1.06c-2.35,0-3.73-1.65-3.73-4.32s1.33-4.5,3.51-4.5,3.47,1.59,3.47,4.16C489.89,221.7,489.88,222,489.86,222.16ZM488.44,221c0-1.65-.66-2.56-2-2.56-1.12,0-1.86.78-2,2.66h4Z" fill="#fff"/><path d="M499.17,221.65c0,2.56-1.13,4.42-3.31,4.42a2.71,2.71,0,0,1-2.21-1v4l-1.47.18V217.44h1.26l.11,1.14a3.09,3.09,0,0,1,2.5-1.33C498.29,217.25,499.17,219,499.17,221.65Zm-1.58,0c0-2.19-.64-3.23-1.91-3.23a2.58,2.58,0,0,0-2,1.31v4.11a2.17,2.17,0,0,0,1.86,1C496.85,224.87,497.59,223.86,497.59,221.65Z" fill="#fff"/><path d="M505.86,225.49a3.18,3.18,0,0,1-1.89.58,2.12,2.12,0,0,1-2.27-2.4v-5.09h-1.48v-1.14h1.48v-1.9l1.47-.18v2.08h2l-.16,1.14h-1.84v5c0,.84.27,1.24,1,1.24a2.33,2.33,0,0,0,1.12-.33Z" fill="#fff"/><path d="M513.59,225.88h-1.27l-.11-1.31a2.83,2.83,0,0,1-2.62,1.5c-1.48,0-2.36-.93-2.36-2.58v-6.05h1.48v5.89c0,1.16.38,1.59,1.29,1.59a2.55,2.55,0,0,0,2.12-1.46v-6h1.47Z" fill="#fff"/><path d="M523,219.83v6h-1.48V220c0-1.27-.51-1.64-1.32-1.64a2.56,2.56,0,0,0-2.15,1.49v6h-1.47v-8.44h1.26l.13,1.25a3.07,3.07,0,0,1,2.58-1.44A2.31,2.31,0,0,1,523,219.83Z" fill="#fff"/><line x1="507.2" y1="190.72" x2="507.2" y2="211.18" fill="none" stroke="#fff" stroke-linecap="round" stroke-miterlimit="10"/><line x1="169.74" y1="173.51" x2="169.74" y2="195.97" fill="none" stroke="#fff" stroke-linecap="round" stroke-miterlimit="10"/><path d="M141-29s60.87,60.14,61.3,191.11C202.54,252.62,165,333.47,135.81,371" fill="none" stroke="#413f51" stroke-miterlimit="10" stroke-width="27" opacity="0.67"/><path d="M197.69,109.75v-4.18l-2.77-.83V103.2l11,3.54v1.92l-11,3.52v-1.6Zm1.23-.37,5.77-1.71-5.77-1.73Z" fill="#fff"/><path d="M202.59,119l-.93-.63a3.89,3.89,0,0,0,.72-2.19c0-1-.43-1.55-1.1-1.55s-1,.44-1.36,1.8c-.45,1.78-1.16,2.81-2.63,2.81-1.76,0-2.56-1.62-2.56-3.33a4.69,4.69,0,0,1,1.1-3.19l.9.79a3.82,3.82,0,0,0-.82,2.36c0,1.11.48,1.81,1.28,1.81s1.16-.41,1.59-2c.48-1.83,1.26-2.55,2.45-2.55,1.34,0,2.32,1.3,2.32,3A4.47,4.47,0,0,1,202.59,119Z" fill="#fff"/><path d="M195.31,125.52a3.18,3.18,0,0,1-.58-1.89,2.12,2.12,0,0,1,2.4-2.27h5.09v-1.47h1.14v1.47h1.9l.18,1.47h-2.08v2l-1.14-.16v-1.84h-5c-.84,0-1.24.27-1.24,1a2.3,2.3,0,0,0,.33,1.12Z" fill="#fff"/><path d="M198.64,133.14v-5.38c-2,.14-2.71,1.06-2.71,2.27a3.52,3.52,0,0,0,.74,2.2l-.88.64a4.61,4.61,0,0,1-1.06-3c0-2.35,1.65-3.73,4.32-3.73s4.5,1.33,4.5,3.51-1.59,3.47-4.16,3.47C199.1,133.17,198.83,133.15,198.64,133.14Zm1.18-1.43c1.65,0,2.56-.65,2.56-2,0-1.12-.78-1.86-2.66-2v4Z" fill="#fff"/><path d="M203.45,140l-1.44-.27a2.39,2.39,0,0,0,.1-.73c0-1.06-.75-1.67-2.37-2h-4.82v-1.47h8.44v1.26l-1.72.14a2.42,2.42,0,0,1,1.91,2.26A3.25,3.25,0,0,1,203.45,140Z" fill="#fff"/><path d="M199.15,148.23c-2.61,0-4.42-1.38-4.42-3.76s1.73-3.77,4.4-3.77,4.42,1.38,4.42,3.78S201.82,148.23,199.15,148.23Zm0-5.94c-2.19,0-3.22.77-3.22,2.18s1,2.17,3.24,2.17,3.22-.77,3.22-2.16S201.34,142.29,199.13,142.29Z" fill="#fff"/><path d="M194.92,152.08v-1.47h8.44v1.47Zm11.48.29a1,1,0,1,1,1-1A1,1,0,0,1,206.4,152.37Z" fill="#fff"/><path d="M206.75,161.52H194.92v-1.29l1.17-.15a2.81,2.81,0,0,1-1.36-2.43c0-2.05,1.74-3.19,4.37-3.19s4.45,1.25,4.45,3.32a3,3,0,0,1-1,2.27h4.42Zm-9.6-1.47h4.13a2.42,2.42,0,0,0,1.1-2c0-1.27-1.06-2-3.25-2s-3.23.7-3.23,1.92A2.41,2.41,0,0,0,197.15,160.05Z" fill="#fff"/><path d="M198.64,170.85v-5.38c-2,.15-2.71,1.06-2.71,2.28a3.51,3.51,0,0,0,.74,2.19l-.88.64a4.59,4.59,0,0,1-1.06-3c0-2.35,1.65-3.73,4.32-3.73s4.5,1.33,4.5,3.51-1.59,3.47-4.16,3.47C199.1,170.88,198.83,170.87,198.64,170.85Zm1.18-1.42c1.65,0,2.56-.66,2.56-2,0-1.12-.78-1.86-2.66-2v4Z" fill="#fff"/><path d="M201,179.59h-6.05v-1.48h5.84c1.27,0,1.64-.51,1.64-1.33a2.56,2.56,0,0,0-1.49-2.14h-6v-1.47h8.44v1.26l-1.25.13a3.07,3.07,0,0,1,1.44,2.58A2.31,2.31,0,0,1,201,179.59Z" fill="#fff"/><path d="M203,189.28a8.32,8.32,0,0,1-.25-2.46,2.24,2.24,0,0,1-2.13,1.49c-1.67,0-2.87-1.2-2.87-3.22a3.42,3.42,0,0,1,.16-1.07,1,1,0,0,0-.78-.42c-.39,0-.69.24-.69,1.1v1.35c0,1.73-1,2.88-2.34,2.88-1.63,0-2.56-1.34-2.56-4s.85-3.62,2.56-3.62v1.33c-1,0-1.4.43-1.4,2.29s.46,2.46,1.31,2.46,1.2-.64,1.2-1.69v-1.33c0-1.51.75-2.18,1.6-2.18a1.84,1.84,0,0,1,1.49.93,2.41,2.41,0,0,1,2.33-1.43,3,3,0,0,1,3,3.25,7.21,7.21,0,0,0,.75,3.86Zm-2.37-6a1.7,1.7,0,0,0-1.9,1.77,1.67,1.67,0,0,0,1.92,1.78,1.64,1.64,0,0,0,1.87-1.81A1.69,1.69,0,0,0,200.6,183.25Z" fill="#fff"/><path d="M194.92,196.93v-1.26l1.31-.12a2.83,2.83,0,0,1-1.5-2.62c0-1.47.93-2.35,2.58-2.35h6.05v1.47h-5.89c-1.16,0-1.59.38-1.59,1.29a2.55,2.55,0,0,0,1.46,2.12h6v1.47ZM206.3,193a.92.92,0,1,1,.91-.91A.9.9,0,0,1,206.3,193Zm0,3.36a.92.92,0,1,1,.91-.93A.91.91,0,0,1,206.3,196.35Z" fill="#fff"/><path d="M203.45,204.37,202,204.1a2.5,2.5,0,0,0,.1-.74c0-1.06-.75-1.66-2.37-2h-4.82v-1.47h8.44v1.27l-1.72.14a2.41,2.41,0,0,1,1.91,2.26A3.31,3.31,0,0,1,203.45,204.37Z" fill="#fff"/><path d="M195.31,210.3a3.15,3.15,0,0,1-.58-1.88,2.12,2.12,0,0,1,2.4-2.28h5.09v-1.47h1.14v1.47h1.9l.18,1.48h-2.08v2l-1.14-.16v-1.84h-5c-.84,0-1.24.27-1.24,1a2.3,2.3,0,0,0,.33,1.12Z" fill="#fff"/><path d="M198.64,217.92v-5.38c-2,.15-2.71,1.06-2.71,2.28a3.51,3.51,0,0,0,.74,2.19l-.88.64a4.59,4.59,0,0,1-1.06-3c0-2.35,1.65-3.73,4.32-3.73s4.5,1.33,4.5,3.51S202,218,199.39,218C199.1,218,198.83,217.94,198.64,217.92Zm1.18-1.42c1.65,0,2.56-.66,2.56-2,0-1.12-.78-1.85-2.66-2v4Z" fill="#fff"/><path d="M196.59,220.14h10.16l.18,1.48H196.62c-.45,0-.67.14-.67.52a1.55,1.55,0,0,0,.09.55l-1,.38a2.41,2.41,0,0,1-.29-1.17A1.66,1.66,0,0,1,196.59,220.14Z" fill="#fff"/><path d="M47.27,54.38l-.9.93a3.42,3.42,0,0,0-2.41-.9c-1.59,0-3.17,1.2-3.17,4.45s1.07,4.47,3,4.47a4.27,4.27,0,0,0,2.09-.5V59.5h-2l-.18-1.23H47.4V63.6a7.07,7.07,0,0,1-3.6,1c-2.85,0-4.63-1.9-4.63-5.71s2.24-5.7,4.79-5.7A4.68,4.68,0,0,1,47.27,54.38Z" fill="#fff"/><path d="M56.25,60.67H50.87c.14,1.95,1.05,2.7,2.27,2.7a3.54,3.54,0,0,0,2.19-.73l.64.88a4.61,4.61,0,0,1-2.94,1c-2.35,0-3.73-1.65-3.73-4.32s1.33-4.5,3.5-4.5,3.48,1.59,3.48,4.17C56.28,60.2,56.26,60.48,56.25,60.67Zm-1.43-1.19c0-1.64-.66-2.56-2-2.56-1.12,0-1.86.79-2,2.66h4Z" fill="#fff"/><path d="M63.77,56.72l-.63.92A3.89,3.89,0,0,0,61,56.92c-1,0-1.55.44-1.55,1.11s.44,1,1.8,1.36C63,59.84,64,60.54,64,62c0,1.76-1.62,2.56-3.33,2.56a4.69,4.69,0,0,1-3.19-1.1l.78-.9a3.81,3.81,0,0,0,2.37.82c1.11,0,1.81-.48,1.81-1.28S62,61,60.4,60.52c-1.82-.48-2.54-1.26-2.54-2.44,0-1.35,1.3-2.33,3-2.33A4.52,4.52,0,0,1,63.77,56.72Z" fill="#fff"/><path d="M70.34,64a3.24,3.24,0,0,1-1.89.57,2.12,2.12,0,0,1-2.27-2.4V57.08H64.71V56h1.47V54l1.47-.17V56h2l-.16,1.13H67.65v5c0,.85.27,1.25,1,1.25A2.25,2.25,0,0,0,69.78,63Z" fill="#fff"/><path d="M78,60.67H72.58c.14,1.95,1.06,2.7,2.27,2.7A3.54,3.54,0,0,0,77,62.64l.65.88a4.65,4.65,0,0,1-3,1c-2.35,0-3.73-1.65-3.73-4.32s1.33-4.5,3.51-4.5S78,57.34,78,59.92C78,60.2,78,60.48,78,60.67Zm-1.43-1.19c0-1.64-.65-2.56-2-2.56-1.12,0-1.86.79-2,2.66h4Z" fill="#fff"/><path d="M82,52.91a1,1,0,1,1-1-1A1,1,0,0,1,82,52.91Zm-.29,11.47H80.27V56h1.48Z" fill="#fff"/><path d="M91.11,58.33v6H89.64V58.54c0-1.26-.52-1.63-1.33-1.63a2.55,2.55,0,0,0-2.15,1.49v6H84.69V56H86l.12,1.25a3.07,3.07,0,0,1,2.58-1.45A2.31,2.31,0,0,1,91.11,58.33Z" fill="#fff"/><path d="M99.16,56.72l-.63.92a3.89,3.89,0,0,0-2.19-.72c-1,0-1.55.44-1.55,1.11s.44,1,1.81,1.36c1.77.45,2.8,1.15,2.8,2.62,0,1.76-1.62,2.56-3.33,2.56a4.69,4.69,0,0,1-3.19-1.1l.79-.9a3.76,3.76,0,0,0,2.37.82c1.1,0,1.8-.48,1.8-1.28s-.41-1.15-2-1.59C94,60,93.25,59.26,93.25,58.08c0-1.35,1.3-2.33,3-2.33A4.48,4.48,0,0,1,99.16,56.72Z" fill="#fff"/><path d="M108.42,60.16c0,2.56-1.14,4.41-3.31,4.41a2.71,2.71,0,0,1-2.21-1v4l-1.47.17V56h1.26l.11,1.13a3.09,3.09,0,0,1,2.5-1.33C107.54,55.75,108.42,57.5,108.42,60.16Zm-1.58,0c0-2.2-.64-3.24-1.91-3.24a2.56,2.56,0,0,0-2,1.32v4.11a2.16,2.16,0,0,0,1.86,1C106.1,63.37,106.84,62.37,106.84,60.16Z" fill="#fff"/><path d="M110.71,62.72V52.55l1.47-.17V62.69c0,.44.14.67.53.67a1.3,1.3,0,0,0,.54-.1l.39,1a2.56,2.56,0,0,1-1.17.28A1.65,1.65,0,0,1,110.71,62.72Z" fill="#fff"/><path d="M121.78,63.55l-.34,1a1.68,1.68,0,0,1-1.64-1.26,2.89,2.89,0,0,1-2.52,1.26A2.45,2.45,0,0,1,114.59,62c0-1.81,1.36-2.79,3.72-2.79h1.29v-.62c0-1.22-.59-1.66-1.76-1.66a7.75,7.75,0,0,0-2.27.44l-.37-1.07a8.37,8.37,0,0,1,2.92-.58c2,0,3,1,3,2.81v3.85C121.08,63.15,121.35,63.39,121.78,63.55Zm-2.18-1.39V60.22h-1.1c-1.55,0-2.34.58-2.34,1.73a1.33,1.33,0,0,0,1.46,1.52A2.16,2.16,0,0,0,119.6,62.16Z" fill="#fff"/><path d="M130.47,58.33v6H129V58.54c0-1.26-.52-1.63-1.33-1.63a2.55,2.55,0,0,0-2.15,1.49v6h-1.47V56h1.26l.13,1.25A3.07,3.07,0,0,1,128,55.75,2.31,2.31,0,0,1,130.47,58.33Z" fill="#fff"/><path d="M139.7,60.67h-5.38c.15,1.95,1.06,2.7,2.28,2.7a3.56,3.56,0,0,0,2.19-.73l.64.88a4.63,4.63,0,0,1-3,1c-2.35,0-3.73-1.65-3.73-4.32s1.33-4.5,3.51-4.5,3.47,1.59,3.47,4.17C139.73,60.2,139.72,60.48,139.7,60.67Zm-1.42-1.19c0-1.64-.66-2.56-2-2.56-1.12,0-1.86.79-2,2.66h4Z" fill="#fff"/><path d="M146.32,64a3.21,3.21,0,0,1-1.88.57,2.12,2.12,0,0,1-2.28-2.4V57.08h-1.47V56h1.47V54l1.47-.17V56h2l-.16,1.13h-1.85v5c0,.85.28,1.25,1,1.25a2.22,2.22,0,0,0,1.12-.34Z" fill="#fff"/><path d="M153.94,60.67h-5.38c.15,1.95,1.06,2.7,2.27,2.7a3.57,3.57,0,0,0,2.2-.73l.64.88a4.63,4.63,0,0,1-2.95,1c-2.35,0-3.73-1.65-3.73-4.32s1.33-4.5,3.51-4.5S154,57.34,154,59.92C154,60.2,154,60.48,153.94,60.67Zm-1.42-1.19c0-1.64-.66-2.56-2-2.56-1.12,0-1.86.79-2,2.66h4Z" fill="#fff"/><path d="M162.68,58.33v6H161.2V58.54c0-1.26-.51-1.63-1.33-1.63a2.54,2.54,0,0,0-2.14,1.49v6h-1.47V56h1.26l.13,1.25a3.06,3.06,0,0,1,2.58-1.45A2.31,2.31,0,0,1,162.68,58.33Z" fill="#fff"/></g></svg>